<svg xmlns="http://www.w3.org/2000/svg" version="1.1" width="622" height="800">
<rect x="0" y="0" width="622" height="800" fill="#a69f8d" />
<g transform="scale(2.000000) translate(0.5 0.5)">
<polygon fill="#6b604e" fill-opacity="1.000000" points="230,341 252,2 55,186" />
<polygon fill="#cfcbbf" fill-opacity="1.000000" points="-12,-3 271,-16 -12,186" />
<polygon fill="#dad4c9" fill-opacity="1.000000" points="266,325 326,415 -16,391" />
<polygon fill="#746e5d" fill-opacity="1.000000" points="298,216 211,130 52,316" />
<polygon fill="#3c3830" fill-opacity="1.000000" points="144,101 258,124 60,221" />
<polygon fill="#cbc6b6" fill-opacity="1.000000" points="-4,415 102,415 1,138" />
<polygon fill="#aba48a" fill-opacity="1.000000" points="230,141 34,241 13,346" />
<polygon fill="#ccc2a9" fill-opacity="1.000000" points="236,67 308,-16 326,269" />
<polygon fill="#b2b0a5" fill-opacity="1.000000" points="210,84 52,128 98,29" />
<polygon fill="#756f54" fill-opacity="1.000000" points="188,325 97,342 153,178" />
<polygon fill="#98643d" fill-opacity="1.000000" points="186,46 279,71 249,4" />
<polygon fill="#b7b2a2" fill-opacity="1.000000" points="173,213 215,156 164,164" />
<polygon fill="#d8d3cb" fill-opacity="1.000000" points="-16,403 207,397 64,322" />
<polygon fill="#514232" fill-opacity="1.000000" points="213,165 277,237 272,185" />
<polygon fill="#dfd5bf" fill-opacity="1.000000" points="316,44 326,-4 199,-16" />
<polygon fill="#684334" fill-opacity="1.000000" points="255,128 214,25 185,57" />
<polygon fill="#413d34" fill-opacity="1.000000" points="67,219 128,121 60,183" />
<polygon fill="#7a735e" fill-opacity="1.000000" points="133,50 83,51 144,70" />
<polygon fill="#c0b99e" fill-opacity="1.000000" points="262,285 326,150 311,414" />
<polygon fill="#858474" fill-opacity="1.000000" points="30,209 145,103 24,165" />
<polygon fill="#443e34" fill-opacity="1.000000" points="220,162 165,92 252,97" />
<polygon fill="#959380" fill-opacity="1.000000" points="213,164 186,194 255,224" />
<polygon fill="#827959" fill-opacity="1.000000" points="179,276 91,316 140,364" />
<polygon fill="#bdb496" fill-opacity="1.000000" points="58,207 135,243 52,298" />
<polygon fill="#5b5546" fill-opacity="1.000000" points="156,258 76,277 55,314" />
<polygon fill="#c89e50" fill-opacity="1.000000" points="262,33 292,71 240,62" />
<polygon fill="#b0a489" fill-opacity="1.000000" points="227,341 219,293 312,325" />
<polygon fill="#60583d" fill-opacity="1.000000" points="130,265 153,192 219,295" />
<polygon fill="#c2c0bb" fill-opacity="1.000000" points="189,90 92,88 186,46" />
<polygon fill="#dad5c9" fill-opacity="1.000000" points="-16,-1 80,-5 -8,268" />
<polygon fill="#97978a" fill-opacity="1.000000" points="301,187 256,110 231,159" />
<polygon fill="#9e573d" fill-opacity="1.000000" points="252,96 209,75 217,31" />
<polygon fill="#bfbdae" fill-opacity="1.000000" points="129,371 211,333 177,324" />
<polygon fill="#b5b095" fill-opacity="1.000000" points="110,304 89,301 127,277" />
<polygon fill="#48382c" fill-opacity="1.000000" points="242,16 201,34 188,70" />
<polygon fill="#aea789" fill-opacity="1.000000" points="12,316 63,300 23,362" />
<polygon fill="#6c6452" fill-opacity="1.000000" points="294,314 292,339 301,341" />
<polygon fill="#9c9b8a" fill-opacity="1.000000" points="139,192 169,163 174,212" />
<polygon fill="#80806a" fill-opacity="1.000000" points="58,229 26,180 45,253" />
<polygon fill="#96998f" fill-opacity="1.000000" points="83,102 150,103 46,159" />
<polygon fill="#6e6657" fill-opacity="1.000000" points="282,349 274,340 281,325" />
<polygon fill="#897a5d" fill-opacity="1.000000" points="202,306 209,339 255,252" />
<polygon fill="#676024" fill-opacity="1.000000" points="235,269 179,254 204,308" />
<polygon fill="#d9d3c8" fill-opacity="1.000000" points="101,46 -16,-6 280,1" />
<polygon fill="#5e5946" fill-opacity="1.000000" points="135,214 222,212 131,242" />
<polygon fill="#807965" fill-opacity="1.000000" points="41,272 24,289 45,237" />
<polygon fill="#88877a" fill-opacity="1.000000" points="241,228 273,269 226,260" />
<polygon fill="#aeaf9b" fill-opacity="1.000000" points="278,191 296,161 295,237" />
<polygon fill="#d4d0c4" fill-opacity="1.000000" points="-16,195 42,238 -2,346" />
<polygon fill="#d4a967" fill-opacity="1.000000" points="254,10 269,18 270,57" />
<polygon fill="#322f29" fill-opacity="1.000000" points="137,119 146,185 83,209" />
<polygon fill="#d7ceb6" fill-opacity="1.000000" points="274,347 304,415 305,343" />
<polygon fill="#736c57" fill-opacity="1.000000" points="91,59 89,45 138,58" />
<polygon fill="#8f8c7a" fill-opacity="1.000000" points="78,214 153,183 118,213" />
<polygon fill="#9d987b" fill-opacity="1.000000" points="123,364 158,359 157,328" />
<polygon fill="#8f8d78" fill-opacity="1.000000" points="158,331 193,297 208,323" />
<polygon fill="#c2c0b5" fill-opacity="1.000000" points="66,93 83,54 172,92" />
<polygon fill="#dcd5c0" fill-opacity="1.000000" points="326,93 277,-16 268,42" />
<polygon fill="#73643a" fill-opacity="1.000000" points="134,285 103,338 100,311" />
<polygon fill="#5d4b3b" fill-opacity="1.000000" points="176,219 197,194 205,232" />
<polygon fill="#cccac2" fill-opacity="1.000000" points="196,37 170,73 128,50" />
<polygon fill="#b1b0a0" fill-opacity="1.000000" points="286,123 250,109 300,188" />
<polygon fill="#4b4130" fill-opacity="1.000000" points="229,164 272,188 289,225" />
<polygon fill="#cdc9bd" fill-opacity="1.000000" points="244,64 326,86 257,116" />
<polygon fill="#dfdad1" fill-opacity="1.000000" points="129,389 186,334 307,408" />
<polygon fill="#413b32" fill-opacity="1.000000" points="155,100 253,108 228,153" />
<polygon fill="#8e8a7d" fill-opacity="1.000000" points="211,169 248,163 246,137" />
<polygon fill="#b4b197" fill-opacity="1.000000" points="300,229 253,311 290,333" />
<polygon fill="#423e34" fill-opacity="1.000000" points="193,44 192,78 204,82" />
<polygon fill="#743923" fill-opacity="1.000000" points="227,33 237,14 252,28" />
<polygon fill="#b8b39c" fill-opacity="1.000000" points="113,295 36,320 77,329" />
<polygon fill="#c8c2b3" fill-opacity="1.000000" points="199,175 215,148 172,171" />
<polygon fill="#bcbbac" fill-opacity="1.000000" points="131,359 110,338 77,334" />
<polygon fill="#3d372f" fill-opacity="1.000000" points="233,138 165,166 162,97" />
<polygon fill="#78755e" fill-opacity="1.000000" points="36,152 27,200 64,179" />
<polygon fill="#b9b6a1" fill-opacity="1.000000" points="281,290 273,307 247,251" />
<polygon fill="#c8c0a7" fill-opacity="1.000000" points="75,279 103,222 127,227" />
<polygon fill="#7f7e6c" fill-opacity="1.000000" points="123,284 122,257 137,233" />
<polygon fill="#433d31" fill-opacity="1.000000" points="232,191 266,228 275,195" />
<polygon fill="#b2b4a8" fill-opacity="1.000000" points="82,116 42,150 65,89" />
<polygon fill="#c9865f" fill-opacity="1.000000" points="234,65 251,90 237,86" />
<polygon fill="#8b8b7c" fill-opacity="1.000000" points="209,305 251,299 250,262" />
<polygon fill="#bdbdb5" fill-opacity="1.000000" points="206,82 213,88 193,87" />
<polygon fill="#cec5a8" fill-opacity="1.000000" points="299,168 326,248 300,333" />
<polygon fill="#625b4b" fill-opacity="1.000000" points="63,208 59,201 65,185" />
<polygon fill="#cdc9b6" fill-opacity="1.000000" points="275,347 263,326 272,308" />
<polygon fill="#95927d" fill-opacity="1.000000" points="283,238 262,226 241,235" />
<polygon fill="#a58763" fill-opacity="1.000000" points="119,52 128,39 133,45" />
<polygon fill="#837c66" fill-opacity="1.000000" points="286,254 292,243 289,265" />
<polygon fill="#bcbdb1" fill-opacity="1.000000" points="23,200 44,244 32,259" />
<polygon fill="#808176" fill-opacity="1.000000" points="274,188 242,163 262,165" />
<polygon fill="#71715d" fill-opacity="1.000000" points="162,231 163,249 132,228" />
<polygon fill="#ac8a61" fill-opacity="1.000000" points="235,308 262,318 266,336" />
<polygon fill="#cccbc0" fill-opacity="1.000000" points="85,32 117,52 133,24" />
<polygon fill="#b3693e" fill-opacity="1.000000" points="220,59 263,17 257,49" />
<polygon fill="#4b4336" fill-opacity="1.000000" points="240,107 166,94 125,119" />
<polygon fill="#615a4c" fill-opacity="1.000000" points="268,271 254,256 268,263" />
<polygon fill="#b3b19b" fill-opacity="1.000000" points="44,222 87,223 56,208" />
<polygon fill="#726c56" fill-opacity="1.000000" points="144,63 116,66 99,46" />
<polygon fill="#764b32" fill-opacity="1.000000" points="233,165 238,194 218,169" />
<polygon fill="#886645" fill-opacity="1.000000" points="209,336 208,301 227,322" />
<polygon fill="#be964b" fill-opacity="1.000000" points="296,75 237,60 284,59" />
<polygon fill="#5d5525" fill-opacity="1.000000" points="198,270 213,251 242,275" />
<polygon fill="#7f7f72" fill-opacity="1.000000" points="229,202 245,220 194,238" />
<polygon fill="#6f6550" fill-opacity="1.000000" points="112,320 148,329 124,348" />
<polygon fill="#bf784b" fill-opacity="1.000000" points="251,10 258,10 258,36" />
<polygon fill="#bab8ad" fill-opacity="1.000000" points="265,333 234,345 212,336" />
<polygon fill="#984c33" fill-opacity="1.000000" points="212,42 246,26 210,77" />
<polygon fill="#534534" fill-opacity="1.000000" points="157,204 135,224 182,225" />
<polygon fill="#77785e" fill-opacity="1.000000" points="201,263 206,252 178,249" />
<polygon fill="#908b6f" fill-opacity="1.000000" points="136,295 125,318 151,328" />
<polygon fill="#d4ccb3" fill-opacity="1.000000" points="314,209 322,-16 287,97" />
<polygon fill="#d0c7b4" fill-opacity="1.000000" points="179,197 187,181 191,195" />
<polygon fill="#dad1bc" fill-opacity="1.000000" points="303,360 285,323 278,403" />
<polygon fill="#3a352d" fill-opacity="1.000000" points="210,29 194,43 200,77" />
<polygon fill="#8c8b7d" fill-opacity="1.000000" points="235,198 186,195 259,222" />
<polygon fill="#a9a99a" fill-opacity="1.000000" points="174,323 209,323 151,343" />
<polygon fill="#a68864" fill-opacity="1.000000" points="222,335 231,324 224,301" />
<polygon fill="#464136" fill-opacity="1.000000" points="249,94 194,93 253,110" />
<polygon fill="#dfc270" fill-opacity="1.000000" points="263,27 260,45 280,59" />
<polygon fill="#c1c0b6" fill-opacity="1.000000" points="297,95 252,107 292,129" />
<polygon fill="#8b8e84" fill-opacity="1.000000" points="131,115 48,163 90,118" />
<polygon fill="#bcb493" fill-opacity="1.000000" points="255,239 278,276 288,249" />
<polygon fill="#787965" fill-opacity="1.000000" points="118,280 161,281 150,265" />
<polygon fill="#979582" fill-opacity="1.000000" points="142,199 148,210 108,216" />
<polygon fill="#d6d1c7" fill-opacity="1.000000" points="-15,335 1,405 55,384" />
<polygon fill="#7c4032" fill-opacity="1.000000" points="231,81 217,93 203,63" />
<polygon fill="#534e40" fill-opacity="1.000000" points="211,167 213,147 226,153" />
<polygon fill="#ccc0a1" fill-opacity="1.000000" points="326,343 318,294 296,346" />
<polygon fill="#817962" fill-opacity="1.000000" points="74,277 68,290 90,274" />
<polygon fill="#4f493d" fill-opacity="1.000000" points="83,282 121,271 76,307" />
<polygon fill="#7f8066" fill-opacity="1.000000" points="161,303 190,288 152,277" />
<polygon fill="#a4a087" fill-opacity="1.000000" points="65,187 55,212 39,212" />
<polygon fill="#82826e" fill-opacity="1.000000" points="226,290 246,291 216,277" />
<polygon fill="#a9a286" fill-opacity="1.000000" points="202,172 231,184 213,195" />
<polygon fill="#32312a" fill-opacity="1.000000" points="247,98 187,160 239,132" />
<polygon fill="#7b6d4a" fill-opacity="1.000000" points="159,334 172,318 143,310" />
<polygon fill="#9d9c8a" fill-opacity="1.000000" points="102,80 94,78 109,73" />
<polygon fill="#b4ac8c" fill-opacity="1.000000" points="11,319 57,320 52,254" />
<polygon fill="#cdcbc3" fill-opacity="1.000000" points="142,58 119,23 217,23" />
<polygon fill="#ddd9d1" fill-opacity="1.000000" points="206,335 185,415 161,346" />
<polygon fill="#b3ae92" fill-opacity="1.000000" points="22,180 22,164 35,150" />
<polygon fill="#564237" fill-opacity="1.000000" points="197,222 212,217 197,235" />
<polygon fill="#b0ae9b" fill-opacity="1.000000" points="92,338 68,326 93,294" />
<polygon fill="#957550" fill-opacity="1.000000" points="200,305 200,323 224,306" />
<polygon fill="#d3cec1" fill-opacity="1.000000" points="74,3 90,74 50,99" />
<polygon fill="#564d41" fill-opacity="1.000000" points="275,346 281,338 278,333" />
<polygon fill="#8b846c" fill-opacity="1.000000" points="127,355 154,332 134,362" />
<polygon fill="#9f9e8f" fill-opacity="1.000000" points="71,101 59,94 80,92" />
<polygon fill="#35322b" fill-opacity="1.000000" points="71,214 125,123 177,129" />
<polygon fill="#bcb598" fill-opacity="1.000000" points="10,322 13,356 23,357" />
<polygon fill="#a8a798" fill-opacity="1.000000" points="186,205 155,185 171,211" />
<polygon fill="#e3dbd0" fill-opacity="1.000000" points="272,332 171,412 274,415" />
<polygon fill="#d8d3c7" fill-opacity="1.000000" points="-16,228 27,121 8,316" />
<polygon fill="#c0beb5" fill-opacity="1.000000" points="212,86 208,82 202,88" />
<polygon fill="#8d8d84" fill-opacity="1.000000" points="248,246 255,288 228,257" />
<polygon fill="#a3814b" fill-opacity="1.000000" points="222,178 229,182 213,185" />
<polygon fill="#544839" fill-opacity="1.000000" points="182,268 153,260 171,284" />
<polygon fill="#3a362d" fill-opacity="1.000000" points="193,75 189,52 200,35" />
<polygon fill="#4c4333" fill-opacity="1.000000" points="278,231 276,206 266,222" />
<polygon fill="#74735d" fill-opacity="1.000000" points="184,318 190,281 181,289" />
<polygon fill="#7d7d69" fill-opacity="1.000000" points="128,245 131,231 147,232" />
<polygon fill="#d0c8ad" fill-opacity="1.000000" points="291,288 304,278 304,334" />
<polygon fill="#b7b192" fill-opacity="1.000000" points="161,358 146,352 147,361" />
<polygon fill="#b2ae99" fill-opacity="1.000000" points="137,194 146,199 157,186" />
<polygon fill="#a49f87" fill-opacity="1.000000" points="74,214 87,210 88,223" />
<polygon fill="#b2ab94" fill-opacity="1.000000" points="254,221 243,207 248,222" />
<polygon fill="#53493a" fill-opacity="1.000000" points="131,253 147,235 134,270" />
<polygon fill="#c5c5b9" fill-opacity="1.000000" points="70,94 50,107 66,109" />
<polygon fill="#b46d3b" fill-opacity="1.000000" points="246,44 242,64 220,53" />
<polygon fill="#bcb89c" fill-opacity="1.000000" points="291,235 283,239 279,220" />
<polygon fill="#9fa193" fill-opacity="1.000000" points="56,165 77,118 43,153" />
<polygon fill="#a0a093" fill-opacity="1.000000" points="103,340 76,322 93,317" />
<polygon fill="#dbd6ce" fill-opacity="1.000000" points="89,415 168,372 98,355" />
<polygon fill="#c3c1ae" fill-opacity="1.000000" points="301,202 279,194 291,185" />
<polygon fill="#a2a49a" fill-opacity="1.000000" points="151,102 100,96 100,116" />
<polygon fill="#7d7d70" fill-opacity="1.000000" points="189,224 174,228 193,241" />
<polygon fill="#6a654d" fill-opacity="1.000000" points="285,220 287,227 289,218" />
<polygon fill="#7a7861" fill-opacity="1.000000" points="46,231 40,260 62,221" />
<polygon fill="#3e3931" fill-opacity="1.000000" points="113,132 75,174 117,171" />
<polygon fill="#787861" fill-opacity="1.000000" points="25,188 48,196 34,213" />
<polygon fill="#bebdb9" fill-opacity="1.000000" points="155,96 205,85 99,62" />
<polygon fill="#4a4236" fill-opacity="1.000000" points="189,91 243,93 204,134" />
<polygon fill="#8d8654" fill-opacity="1.000000" points="168,317 157,289 129,297" />
<polygon fill="#c8b086" fill-opacity="1.000000" points="254,307 230,312 226,302" />
<polygon fill="#827147" fill-opacity="1.000000" points="200,202 198,212 228,213" />
<polygon fill="#5f3426" fill-opacity="1.000000" points="189,209 192,199 204,204" />
<polygon fill="#5d392d" fill-opacity="1.000000" points="160,213 155,203 140,199" />
<polygon fill="#e2dac7" fill-opacity="1.000000" points="276,35 254,-14 313,-16" />
<polygon fill="#89897f" fill-opacity="1.000000" points="267,143 248,133 232,165" />
<polygon fill="#bfbcae" fill-opacity="1.000000" points="256,328 266,338 247,332" />
<polygon fill="#a7a17f" fill-opacity="1.000000" points="292,305 297,316 290,325" />
<polygon fill="#5c5547" fill-opacity="1.000000" points="124,259 90,275 123,270" />
<polygon fill="#813f26" fill-opacity="1.000000" points="245,12 224,21 255,34" />
<polygon fill="#7a6f44" fill-opacity="1.000000" points="100,329 100,307 107,304" />
<polygon fill="#2c2a25" fill-opacity="1.000000" points="158,157 145,184 74,197" />
<polygon fill="#7a5841" fill-opacity="1.000000" points="219,327 207,340 210,315" />
<polygon fill="#9e9e93" fill-opacity="1.000000" points="265,281 265,308 248,260" />
<polygon fill="#9e8668" fill-opacity="1.000000" points="235,309 243,324 249,319" />
<polygon fill="#dfd6cd" fill-opacity="1.000000" points="292,-16 112,9 212,23" />
<polygon fill="#bbb498" fill-opacity="1.000000" points="89,257 114,259 87,274" />
<polygon fill="#696152" fill-opacity="1.000000" points="253,250 270,274 269,263" />
<polygon fill="#4c473b" fill-opacity="1.000000" points="114,278 97,294 86,291" />
<polygon fill="#a09d8b" fill-opacity="1.000000" points="169,201 181,177 158,179" />
<polygon fill="#9e9d84" fill-opacity="1.000000" points="102,338 119,342 108,334" />
<polygon fill="#b9b19f" fill-opacity="1.000000" points="95,44 87,44 83,50" />
<polygon fill="#9a9c88" fill-opacity="1.000000" points="194,324 177,326 202,307" />
<polygon fill="#d3cec3" fill-opacity="1.000000" points="301,78 259,86 233,65" />
<polygon fill="#62624f" fill-opacity="1.000000" points="200,258 195,243 172,233" />
<polygon fill="#3b3830" fill-opacity="1.000000" points="65,181 90,177 71,215" />
<polygon fill="#878874" fill-opacity="1.000000" points="129,273 128,249 118,292" />
<polygon fill="#8c8d81" fill-opacity="1.000000" points="89,152 60,150 61,178" />
<polygon fill="#7d7d71" fill-opacity="1.000000" points="237,231 235,208 207,219" />
<polygon fill="#6f6e5f" fill-opacity="1.000000" points="153,277 141,273 152,254" />
<polygon fill="#a5a497" fill-opacity="1.000000" points="247,337 248,322 220,335" />
<polygon fill="#8b8673" fill-opacity="1.000000" points="136,56 146,63 142,66" />
<polygon fill="#828371" fill-opacity="1.000000" points="165,228 161,238 151,235" />
<polygon fill="#3b342b" fill-opacity="1.000000" points="192,43 218,25 234,28" />
<polygon fill="#6f6a5a" fill-opacity="1.000000" points="202,79 191,77 194,81" />
<polygon fill="#77705a" fill-opacity="1.000000" points="29,272 36,271 25,294" />
<polygon fill="#a49e82" fill-opacity="1.000000" points="32,307 13,325 16,339" />
<polygon fill="#909275" fill-opacity="1.000000" points="295,222 299,217 287,217" />
<polygon fill="#d7d0be" fill-opacity="1.000000" points="194,162 210,150 211,164" />
<polygon fill="#bfb89d" fill-opacity="1.000000" points="61,320 96,310 110,287" />
<polygon fill="#5d3d2c" fill-opacity="1.000000" points="243,190 229,166 242,168" />
<polygon fill="#655e1f" fill-opacity="1.000000" points="209,272 190,257 178,285" />
<polygon fill="#cac8b3" fill-opacity="1.000000" points="94,69 112,75 110,58" />
<polygon fill="#b9b7b0" fill-opacity="1.000000" points="254,118 251,98 276,122" />
<polygon fill="#c88853" fill-opacity="1.000000" points="258,11 267,21 258,30" />
<polygon fill="#878776" fill-opacity="1.000000" points="156,191 150,198 167,209" />
<polygon fill="#735f3a" fill-opacity="1.000000" points="102,309 101,339 119,322" />
<polygon fill="#89856f" fill-opacity="1.000000" points="44,205 53,183 43,178" />
<polygon fill="#696a53" fill-opacity="1.000000" points="172,299 168,318 196,295" />
<polygon fill="#9a9b8b" fill-opacity="1.000000" points="298,165 257,150 275,192" />
<polygon fill="#e1ca7f" fill-opacity="1.000000" points="271,44 269,25 263,28" />
<polygon fill="#696855" fill-opacity="1.000000" points="235,246 224,262 222,233" />
<polygon fill="#bdb7a0" fill-opacity="1.000000" points="76,321 71,307 41,331" />
<polygon fill="#bcbcae" fill-opacity="1.000000" points="205,332 181,336 205,323" />
<polygon fill="#b56c4b" fill-opacity="1.000000" points="233,91 242,90 233,65" />
<polygon fill="#908c70" fill-opacity="1.000000" points="36,150 25,170 44,154" />
<polygon fill="#808367" fill-opacity="1.000000" points="156,335 163,331 149,324" />
<polygon fill="#dad0b5" fill-opacity="1.000000" points="303,-16 324,22 298,100" />
<polygon fill="#645c49" fill-opacity="1.000000" points="70,296 68,291 58,307" />
<polygon fill="#d8b861" fill-opacity="1.000000" points="273,56 289,65 278,54" />
<polygon fill="#bfaea3" fill-opacity="1.000000" points="247,341 255,348 248,334" />
<polygon fill="#8f7054" fill-opacity="1.000000" points="121,47 126,55 127,43" />
<polygon fill="#b5af94" fill-opacity="1.000000" points="117,287 108,285 103,291" />
<polygon fill="#605845" fill-opacity="1.000000" points="242,91 252,107 250,94" />
<polygon fill="#633529" fill-opacity="1.000000" points="191,199 195,206 186,201" />
<polygon fill="#beb697" fill-opacity="1.000000" points="27,300 20,307 24,288" />
<polygon fill="#9b987b" fill-opacity="1.000000" points="53,223 59,227 69,215" />
<polygon fill="#7a7461" fill-opacity="1.000000" points="43,267 32,267 49,238" />
<polygon fill="#5e604c" fill-opacity="1.000000" points="176,211 171,219 157,216" />
<polygon fill="#a6a498" fill-opacity="1.000000" points="185,59 185,71 190,75" />
<polygon fill="#7e7360" fill-opacity="1.000000" points="138,304 136,316 144,331" />
<polygon fill="#605e46" fill-opacity="1.000000" points="137,244 171,256 146,233" />
<polygon fill="#8f9084" fill-opacity="1.000000" points="250,229 246,257 260,225" />
<polygon fill="#3f3931" fill-opacity="1.000000" points="107,162 169,163 203,131" />
<polygon fill="#ab8759" fill-opacity="1.000000" points="225,326 228,303 217,303" />
<polygon fill="#b8b7a5" fill-opacity="1.000000" points="279,114 290,170 294,142" />
<polygon fill="#bdb391" fill-opacity="1.000000" points="52,243 49,319 84,260" />
<polygon fill="#7a4730" fill-opacity="1.000000" points="219,174 223,165 245,180" />
<polygon fill="#b9b398" fill-opacity="1.000000" points="117,223 130,226 128,243" />
<polygon fill="#8c4835" fill-opacity="1.000000" points="238,91 211,56 224,91" />
<polygon fill="#51473b" fill-opacity="1.000000" points="298,328 293,328 298,340" />
<polygon fill="#828371" fill-opacity="1.000000" points="205,242 223,243 218,248" />
<polygon fill="#6a6354" fill-opacity="1.000000" points="178,95 183,92 169,93" />
<polygon fill="#8b8a7b" fill-opacity="1.000000" points="159,171 159,180 142,187" />
<polygon fill="#c8bb9a" fill-opacity="1.000000" points="83,233 85,251 56,279" />
<polygon fill="#95968a" fill-opacity="1.000000" points="245,303 249,253 260,298" />
<polygon fill="#82836f" fill-opacity="1.000000" points="218,286 220,297 239,298" />
<polygon fill="#848477" fill-opacity="1.000000" points="234,201 208,205 192,191" />
<polygon fill="#60574a" fill-opacity="1.000000" points="276,346 281,336 275,329" />
<polygon fill="#555043" fill-opacity="1.000000" points="59,204 63,209 63,200" />
<polygon fill="#787664" fill-opacity="1.000000" points="141,229 135,245 132,224" />
<polygon fill="#c1bbaa" fill-opacity="1.000000" points="178,192 191,169 210,164" />
<polygon fill="#8d8c7c" fill-opacity="1.000000" points="66,91 69,93 59,95" />
<polygon fill="#a3a58f" fill-opacity="1.000000" points="294,206 279,198 289,218" />
<polygon fill="#c7c6be" fill-opacity="1.000000" points="258,113 247,80 278,91" />
<polygon fill="#d1c8ab" fill-opacity="1.000000" points="314,116 324,238 295,198" />
<polygon fill="#b8b9a8" fill-opacity="1.000000" points="65,98 72,88 85,87" />
<polygon fill="#aca484" fill-opacity="1.000000" points="39,281 36,303 58,260" />
<polygon fill="#aeab97" fill-opacity="1.000000" points="135,206 135,201 145,195" />
<polygon fill="#ccbf9e" fill-opacity="1.000000" points="326,346 303,415 307,270" />
<polygon fill="#a3a69b" fill-opacity="1.000000" points="83,116 58,136 83,101" />
<polygon fill="#e4dbcb" fill-opacity="1.000000" points="267,327 255,398 279,367" />
<polygon fill="#d9d4cc" fill-opacity="1.000000" points="16,382 122,362 45,332" />
<polygon fill="#a39e84" fill-opacity="1.000000" points="274,332 282,325 281,309" />
<polygon fill="#4f4c3f" fill-opacity="1.000000" points="235,139 245,132 248,122" />
<polygon fill="#a1a190" fill-opacity="1.000000" points="210,185 192,183 209,168" />
<polygon fill="#c5c5b9" fill-opacity="1.000000" points="30,266 21,227 40,249" />
<polygon fill="#c9c5b7" fill-opacity="1.000000" points="95,342 121,349 132,366" />
<polygon fill="#443c2f" fill-opacity="1.000000" points="177,219 184,214 186,224" />
<polygon fill="#707165" fill-opacity="1.000000" points="260,170 255,178 243,168" />
<polygon fill="#a7a897" fill-opacity="1.000000" points="293,144 266,138 268,149" />
<polygon fill="#8b8c7e" fill-opacity="1.000000" points="263,162 264,178 275,158" />
<polygon fill="#5b5421" fill-opacity="1.000000" points="209,251 220,252 202,279" />
<polygon fill="#d8d2c4" fill-opacity="1.000000" points="36,140 88,15 53,1" />
<polygon fill="#b0593a" fill-opacity="1.000000" points="221,60 233,55 217,42" />
<polygon fill="#babbac" fill-opacity="1.000000" points="250,303 272,311 270,323" />
</g>
</svg>