<svg xmlns="http://www.w3.org/2000/svg" version="1.1" width="796" height="1024">
<rect x="0" y="0" width="796" height="1024" fill="#a69f8d" />
<g transform="scale(4.000000) translate(0.5 0.5)">
<polygon fill="#6b614e" fill-opacity="1.000000" points="147,217 35,121 161,0" />
<polygon fill="#cfcbbf" fill-opacity="1.000000" points="-16,122 -10,-3 181,-15" />
<polygon fill="#dad4c9" fill-opacity="1.000000" points="214,271 -16,248 169,209" />
<polygon fill="#807a68" fill-opacity="1.000000" points="188,149 156,84 45,143" />
<polygon fill="#736e55" fill-opacity="1.000000" points="169,111 90,233 41,185" />
<polygon fill="#3a362e" fill-opacity="1.000000" points="162,80 41,138 92,66" />
<polygon fill="#ccc3aa" fill-opacity="1.000000" points="214,196 154,43 196,-16" />
<polygon fill="#c8c3b3" fill-opacity="1.000000" points="-16,60 -2,271 61,230" />
<polygon fill="#b6b4a9" fill-opacity="1.000000" points="29,79 130,54 72,13" />
<polygon fill="#b1aa8d" fill-opacity="1.000000" points="32,133 87,145 4,230" />
<polygon fill="#b3af9f" fill-opacity="1.000000" points="140,96 103,107 109,138" />
<polygon fill="#524333" fill-opacity="1.000000" points="176,121 135,100 174,150" />
<polygon fill="#8d5c3a" fill-opacity="1.000000" points="152,7 176,43 115,32" />
<polygon fill="#dfd6c1" fill-opacity="1.000000" points="131,-4 214,25 199,-11" />
<polygon fill="#433e33" fill-opacity="1.000000" points="163,60 92,66 144,100" />
<polygon fill="#78725c" fill-opacity="1.000000" points="87,44 88,34 53,30" />
<polygon fill="#5c5646" fill-opacity="1.000000" points="48,177 87,171 35,201" />
<polygon fill="#848472" fill-opacity="1.000000" points="75,74 21,137 15,105" />
<polygon fill="#b0ac93" fill-opacity="1.000000" points="57,210 41,202 81,177" />
<polygon fill="#d8d3ca" fill-opacity="1.000000" points="105,240 36,207 -16,268" />
<polygon fill="#c1ba9e" fill-opacity="1.000000" points="170,178 198,271 214,86" />
<polygon fill="#676042" fill-opacity="1.000000" points="84,138 137,214 131,130" />
<polygon fill="#39362f" fill-opacity="1.000000" points="73,81 34,133 89,121" />
<polygon fill="#c18c4b" fill-opacity="1.000000" points="162,6 183,46 154,36" />
<polygon fill="#dad5c9" fill-opacity="1.000000" points="-2,196 -16,-4 40,-16" />
<polygon fill="#d2cdc4" fill-opacity="1.000000" points="116,56 127,-14 48,4" />
<polygon fill="#4c3b2e" fill-opacity="1.000000" points="120,46 123,27 158,7" />
<polygon fill="#afa185" fill-opacity="1.000000" points="146,215 138,188 198,209" />
<polygon fill="#888471" fill-opacity="1.000000" points="173,174 138,99 125,127" />
<polygon fill="#96937d" fill-opacity="1.000000" points="44,140 34,121 16,188" />
<polygon fill="#b2ac93" fill-opacity="1.000000" points="85,135 29,136 83,163" />
<polygon fill="#bbb8a5" fill-opacity="1.000000" points="88,234 132,212 97,214" />
<polygon fill="#b0b0a0" fill-opacity="1.000000" points="159,57 185,128 193,99" />
<polygon fill="#9a543b" fill-opacity="1.000000" points="131,47 161,62 140,22" />
<polygon fill="#95978c" fill-opacity="1.000000" points="29,108 106,60 40,75" />
<polygon fill="#605a41" fill-opacity="1.000000" points="82,171 156,176 96,127" />
<polygon fill="#827b5b" fill-opacity="1.000000" points="64,216 144,199 97,175" />
<polygon fill="#aaa794" fill-opacity="1.000000" points="147,121 79,128 124,107" />
<polygon fill="#c0b797" fill-opacity="1.000000" points="83,145 40,142 25,201" />
<polygon fill="#7d7563" fill-opacity="1.000000" points="193,217 189,204 185,218" />
<polygon fill="#919284" fill-opacity="1.000000" points="159,75 186,109 152,104" />
<polygon fill="#76715c" fill-opacity="1.000000" points="65,29 55,33 76,41" />
<polygon fill="#d9d0ba" fill-opacity="1.000000" points="185,208 176,237 202,271" />
<polygon fill="#37342d" fill-opacity="1.000000" points="36,119 82,79 92,119" />
<polygon fill="#cdc8b9" fill-opacity="1.000000" points="192,92 201,51 149,41" />
<polygon fill="#bfbfb9" fill-opacity="1.000000" points="133,55 49,57 85,42" />
<polygon fill="#665f22" fill-opacity="1.000000" points="115,165 131,196 146,168" />
<polygon fill="#6a6253" fill-opacity="1.000000" points="176,211 176,223 181,214" />
<polygon fill="#c9a352" fill-opacity="1.000000" points="158,40 169,25 189,46" />
<polygon fill="#d6d1c4" fill-opacity="1.000000" points="-16,166 2,263 15,126" />
<polygon fill="#ada78b" fill-opacity="1.000000" points="38,200 15,228 6,203" />
<polygon fill="#898874" fill-opacity="1.000000" points="159,190 129,198 158,166" />
<polygon fill="#443e31" fill-opacity="1.000000" points="150,125 179,131 176,147" />
<polygon fill="#6b6a58" fill-opacity="1.000000" points="87,148 130,167 134,145" />
<polygon fill="#b8b498" fill-opacity="1.000000" points="180,144 198,159 168,216" />
<polygon fill="#dcd3ba" fill-opacity="1.000000" points="168,22 203,59 196,-16" />
<polygon fill="#9b9678" fill-opacity="1.000000" points="84,232 100,224 100,210" />
<polygon fill="#a85f39" fill-opacity="1.000000" points="165,26 160,6 141,49" />
<polygon fill="#dbd4ca" fill-opacity="1.000000" points="-6,-16 171,4 79,18" />
<polygon fill="#403c32" fill-opacity="1.000000" points="162,71 133,58 137,104" />
<polygon fill="#85867b" fill-opacity="1.000000" points="32,122 81,75 53,81" />
<polygon fill="#ded9d0" fill-opacity="1.000000" points="123,210 206,268 81,247" />
<polygon fill="#7a7b63" fill-opacity="1.000000" points="26,110 15,120 32,160" />
<polygon fill="#999681" fill-opacity="1.000000" points="43,140 84,139 105,114" />
<polygon fill="#9a8161" fill-opacity="1.000000" points="80,27 75,34 85,27" />
<polygon fill="#c2bdac" fill-opacity="1.000000" points="136,95 112,111 114,133" />
<polygon fill="#87877b" fill-opacity="1.000000" points="159,138 160,180 145,164" />
<polygon fill="#5e4e3d" fill-opacity="1.000000" points="123,126 131,132 102,157" />
<polygon fill="#cfc4a5" fill-opacity="1.000000" points="196,132 189,271 214,199" />
<polygon fill="#413a30" fill-opacity="1.000000" points="141,14 126,51 119,39" />
<polygon fill="#75673d" fill-opacity="1.000000" points="86,185 65,214 64,197" />
<polygon fill="#2e2c27" fill-opacity="1.000000" points="96,114 62,112 42,134" />
<polygon fill="#4b4336" fill-opacity="1.000000" points="135,82 109,60 156,58" />
<polygon fill="#8e8d80" fill-opacity="1.000000" points="163,84 135,107 161,102" />
<polygon fill="#94917f" fill-opacity="1.000000" points="155,141 149,126 176,150" />
<polygon fill="#d5ab64" fill-opacity="1.000000" points="164,7 171,35 172,15" />
<polygon fill="#7e7965" fill-opacity="1.000000" points="16,180 28,155 28,168" />
<polygon fill="#c78760" fill-opacity="1.000000" points="160,58 153,56 151,43" />
<polygon fill="#a8aba0" fill-opacity="1.000000" points="69,59 31,80 29,98" />
<polygon fill="#b9b6a8" fill-opacity="1.000000" points="137,214 150,221 180,209" />
<polygon fill="#9e9e8c" fill-opacity="1.000000" points="109,105 95,116 110,136" />
<polygon fill="#7c4030" fill-opacity="1.000000" points="147,61 136,28 129,46" />
<polygon fill="#8f8c75" fill-opacity="1.000000" points="134,207 123,194 113,200" />
<polygon fill="#7c7c69" fill-opacity="1.000000" points="84,141 81,170 90,148" />
<polygon fill="#cac8b7" fill-opacity="1.000000" points="70,39 44,37 51,58" />
<polygon fill="#38352d" fill-opacity="1.000000" points="159,61 97,109 153,87" />
<polygon fill="#734b32" fill-opacity="1.000000" points="146,117 140,108 157,107" />
<polygon fill="#766f5a" fill-opacity="1.000000" points="185,158 187,161 184,168" />
<polygon fill="#813e26" fill-opacity="1.000000" points="145,12 156,8 161,23" />
<polygon fill="#d6d1c3" fill-opacity="1.000000" points="36,28 25,-16 79,29" />
<polygon fill="#75735c" fill-opacity="1.000000" points="17,116 24,99 40,115" />
<polygon fill="#a9875f" fill-opacity="1.000000" points="170,213 167,204 152,199" />
<polygon fill="#5b5540" fill-opacity="1.000000" points="82,160 116,152 114,181" />
<polygon fill="#c2c0b7" fill-opacity="1.000000" points="161,72 164,54 197,82" />
<polygon fill="#bbb9a9" fill-opacity="1.000000" points="86,231 69,215 58,216" />
<polygon fill="#a9a58c" fill-opacity="1.000000" points="39,123 24,136 32,122" />
<polygon fill="#464339" fill-opacity="1.000000" points="54,131 45,137 38,128" />
<polygon fill="#726e54" fill-opacity="1.000000" points="120,178 125,190 93,215" />
<polygon fill="#727260" fill-opacity="1.000000" points="128,163 110,145 163,144" />
<polygon fill="#544b37" fill-opacity="1.000000" points="176,125 185,143 176,136" />
<polygon fill="#82846e" fill-opacity="1.000000" points="77,179 81,184 82,165" />
<polygon fill="#a5a69b" fill-opacity="1.000000" points="55,72 94,65 35,58" />
<polygon fill="#d2cfc2" fill-opacity="1.000000" points="11,159 27,155 8,188" />
<polygon fill="#8c6a49" fill-opacity="1.000000" points="134,193 133,217 145,204" />
<polygon fill="#d3ceb9" fill-opacity="1.000000" points="177,226 169,210 174,204" />
<polygon fill="#c1c1b4" fill-opacity="1.000000" points="114,215 130,217 131,206" />
<polygon fill="#c7bfa4" fill-opacity="1.000000" points="51,175 67,143 74,163" />
<polygon fill="#98998a" fill-opacity="1.000000" points="176,121 186,110 162,77" />
<polygon fill="#514b3e" fill-opacity="1.000000" points="78,168 55,179 48,196" />
<polygon fill="#817c69" fill-opacity="1.000000" points="88,37 92,39 84,44" />
<polygon fill="#544838" fill-opacity="1.000000" points="86,144 99,132 133,144" />
<polygon fill="#bcb9b0" fill-opacity="1.000000" points="127,56 134,55 133,52" />
<polygon fill="#b6b399" fill-opacity="1.000000" points="157,197 184,210 187,175" />
<polygon fill="#c1c0ba" fill-opacity="1.000000" points="112,31 91,66 122,49" />
<polygon fill="#3e3930" fill-opacity="1.000000" points="128,63 91,106 126,100" />
<polygon fill="#d2caaf" fill-opacity="1.000000" points="214,103 193,163 190,40" />
<polygon fill="#6e6858" fill-opacity="1.000000" points="160,161 172,173 173,167" />
<polygon fill="#888269" fill-opacity="1.000000" points="97,214 80,222 83,231" />
<polygon fill="#b9b391" fill-opacity="1.000000" points="178,153 188,187 163,155" />
<polygon fill="#d7d3c5" fill-opacity="1.000000" points="33,21 21,84 44,51" />
<polygon fill="#34332c" fill-opacity="1.000000" points="63,124 55,132 77,124" />
<polygon fill="#9c9a86" fill-opacity="1.000000" points="148,125 121,124 134,108" />
<polygon fill="#3b3830" fill-opacity="1.000000" points="127,23 122,40 139,16" />
<polygon fill="#cac9c0" fill-opacity="1.000000" points="105,49 127,21 74,16" />
<polygon fill="#77765f" fill-opacity="1.000000" points="28,162 29,144 37,144" />
<polygon fill="#5f5722" fill-opacity="1.000000" points="152,174 134,162 125,181" />
<polygon fill="#584638" fill-opacity="1.000000" points="126,150 127,135 132,143" />
<polygon fill="#434037" fill-opacity="1.000000" points="140,103 156,84 136,93" />
<polygon fill="#8e8a6e" fill-opacity="1.000000" points="83,205 98,209 85,189" />
<polygon fill="#bbb496" fill-opacity="1.000000" points="60,146 43,136 27,169" />
<polygon fill="#a78559" fill-opacity="1.000000" points="148,210 144,193 136,196" />
<polygon fill="#ded7c3" fill-opacity="1.000000" points="190,48 192,-16 172,12" />
<polygon fill="#6f654e" fill-opacity="1.000000" points="85,221 67,205 91,208" />
<polygon fill="#bbb69e" fill-opacity="1.000000" points="53,207 72,184 25,211" />
<polygon fill="#4a4234" fill-opacity="1.000000" points="143,65 76,80 108,60" />
<polygon fill="#7b7a6b" fill-opacity="1.000000" points="135,135 169,146 134,145" />
<polygon fill="#9f9c89" fill-opacity="1.000000" points="115,116 103,108 77,135" />
<polygon fill="#bebeb2" fill-opacity="1.000000" points="31,71 52,62 29,88" />
<polygon fill="#b2b19b" fill-opacity="1.000000" points="49,143 37,133 29,143" />
<polygon fill="#837345" fill-opacity="1.000000" points="125,135 130,131 144,136" />
<polygon fill="#717158" fill-opacity="1.000000" points="98,166 79,182 94,186" />
<polygon fill="#bbb69d" fill-opacity="1.000000" points="71,185 62,196 73,190" />
<polygon fill="#d2d0c5" fill-opacity="1.000000" points="104,219 111,217 103,234" />
<polygon fill="#d6d2c8" fill-opacity="1.000000" points="7,254 49,256 -1,221" />
<polygon fill="#a1a093" fill-opacity="1.000000" points="138,214 156,206 159,212" />
<polygon fill="#474339" fill-opacity="1.000000" points="157,82 160,70 154,77" />
<polygon fill="#dfc470" fill-opacity="1.000000" points="169,17 167,29 176,34" />
<polygon fill="#4d3e2e" fill-opacity="1.000000" points="155,107 179,135 148,120" />
<polygon fill="#706952" fill-opacity="1.000000" points="59,37 58,29 71,32" />
<polygon fill="#bcbdb2" fill-opacity="1.000000" points="20,166 16,128 27,155" />
<polygon fill="#d0c7aa" fill-opacity="1.000000" points="187,183 199,175 193,211" />
<polygon fill="#cec7b7" fill-opacity="1.000000" points="114,105 131,108 135,100" />
<polygon fill="#b9b69f" fill-opacity="1.000000" points="160,164 185,212 181,186" />
<polygon fill="#b18660" fill-opacity="1.000000" points="80,33 83,30 82,26" />
<polygon fill="#bc9147" fill-opacity="1.000000" points="165,35 184,46 154,38" />
<polygon fill="#8f6f49" fill-opacity="1.000000" points="126,205 135,192 142,205" />
<polygon fill="#b3663b" fill-opacity="1.000000" points="161,22 137,37 164,31" />
<polygon fill="#b1a989" fill-opacity="1.000000" points="42,155 5,207 19,217" />
<polygon fill="#bab69a" fill-opacity="1.000000" points="12,116 16,103 16,114" />
<polygon fill="#a4a494" fill-opacity="1.000000" points="119,131 112,135 98,119" />
<polygon fill="#bebeb9" fill-opacity="1.000000" points="94,61 102,50 135,54" />
<polygon fill="#e4dbce" fill-opacity="1.000000" points="178,268 173,215 138,238" />
<polygon fill="#a6a799" fill-opacity="1.000000" points="48,209 53,202 70,220" />
<polygon fill="#573a28" fill-opacity="1.000000" points="151,19 141,21 149,17" />
<polygon fill="#766f59" fill-opacity="1.000000" points="60,174 47,179 44,186" />
<polygon fill="#322e28" fill-opacity="1.000000" points="75,101 74,86 125,79" />
<polygon fill="#9b9a87" fill-opacity="1.000000" points="162,146 156,166 171,148" />
<polygon fill="#cccbc1" fill-opacity="1.000000" points="73,15 76,33 60,21" />
<polygon fill="#929388" fill-opacity="1.000000" points="152,192 167,191 158,159" />
<polygon fill="#79735d" fill-opacity="1.000000" points="23,172 18,186 17,178" />
<polygon fill="#908f7c" fill-opacity="1.000000" points="55,135 92,135 83,124" />
<polygon fill="#c68350" fill-opacity="1.000000" points="163,7 164,16 171,13" />
<polygon fill="#706b54" fill-opacity="1.000000" points="78,42 92,40 67,31" />
<polygon fill="#959882" fill-opacity="1.000000" points="118,208 120,196 129,197" />
<polygon fill="#4e4439" fill-opacity="1.000000" points="82,173 92,169 87,160" />
<polygon fill="#8d8653" fill-opacity="1.000000" points="108,201 98,186 81,190" />
<polygon fill="#b1ae91" fill-opacity="1.000000" points="191,204 181,174 177,203" />
<polygon fill="#5e4234" fill-opacity="1.000000" points="97,127 105,140 91,127" />
<polygon fill="#ded6cc" fill-opacity="1.000000" points="124,17 169,0 81,-16" />
<polygon fill="#423d34" fill-opacity="1.000000" points="40,122 79,100 64,98" />
<polygon fill="#625c4d" fill-opacity="1.000000" points="129,49 121,47 127,52" />
<polygon fill="#bcbca6" fill-opacity="1.000000" points="177,124 190,118 190,132" />
<polygon fill="#999c91" fill-opacity="1.000000" points="54,64 64,70 37,93" />
<polygon fill="#827c5b" fill-opacity="1.000000" points="64,197 65,209 62,201" />
<polygon fill="#cecbbe" fill-opacity="1.000000" points="37,46 46,56 57,27" />
<polygon fill="#645c21" fill-opacity="1.000000" points="114,182 117,164 132,171" />
<polygon fill="#83836f" fill-opacity="1.000000" points="82,162 87,156 75,164" />
<polygon fill="#bfba9d" fill-opacity="1.000000" points="6,208 6,224 15,230" />
<polygon fill="#cabc99" fill-opacity="1.000000" points="195,257 198,176 214,245" />
<polygon fill="#bdbba9" fill-opacity="1.000000" points="177,77 191,104 186,76" />
<polygon fill="#443e31" fill-opacity="1.000000" points="172,147 148,121 177,127" />
<polygon fill="#ab976d" fill-opacity="1.000000" points="138,110 146,118 137,119" />
<polygon fill="#c3c2ba" fill-opacity="1.000000" points="77,53 107,43 65,44" />
<polygon fill="#d3cdbf" fill-opacity="1.000000" points="192,49 149,42 193,66" />
<polygon fill="#2b2a25" fill-opacity="1.000000" points="51,134 100,108 81,106" />
<polygon fill="#80826f" fill-opacity="1.000000" points="102,152 105,147 97,150" />
<polygon fill="#914732" fill-opacity="1.000000" points="148,58 136,42 137,27" />
<polygon fill="#bc6f4c" fill-opacity="1.000000" points="152,55 152,47 147,40" />
<polygon fill="#d8d2bf" fill-opacity="1.000000" points="135,101 133,97 124,103" />
<polygon fill="#d6d1c5" fill-opacity="1.000000" points="-16,155 17,180 13,96" />
<polygon fill="#494439" fill-opacity="1.000000" points="77,173 62,180 63,186" />
<polygon fill="#7f714b" fill-opacity="1.000000" points="108,203 101,214 92,194" />
<polygon fill="#b6b08e" fill-opacity="1.000000" points="100,230 94,226 103,227" />
<polygon fill="#524736" fill-opacity="1.000000" points="99,169 104,177 119,171" />
<polygon fill="#534a3c" fill-opacity="1.000000" points="187,209 191,216 190,210" />
<polygon fill="#7d7e72" fill-opacity="1.000000" points="118,149 117,143 121,143" />
<polygon fill="#aba588" fill-opacity="1.000000" points="41,199 11,202 9,216" />
<polygon fill="#888879" fill-opacity="1.000000" points="123,125 146,129 127,119" />
<polygon fill="#9f5133" fill-opacity="1.000000" points="151,19 161,19 137,37" />
<polygon fill="#d8ceb2" fill-opacity="1.000000" points="197,-2 190,85 214,22" />
<polygon fill="#cfc6ae" fill-opacity="1.000000" points="64,146 73,147 53,170" />
<polygon fill="#c6b088" fill-opacity="1.000000" points="150,192 161,197 144,198" />
<polygon fill="#7f8169" fill-opacity="1.000000" points="103,179 116,185 104,196" />
<polygon fill="#b8b39a" fill-opacity="1.000000" points="68,192 58,189 74,188" />
<polygon fill="#7c5c44" fill-opacity="1.000000" points="132,201 135,211 143,213" />
<polygon fill="#74613d" fill-opacity="1.000000" points="78,206 66,200 65,216" />
<polygon fill="#75482f" fill-opacity="1.000000" points="140,110 151,106 152,120" />
<polygon fill="#969686" fill-opacity="1.000000" points="79,136 94,133 91,129" />
<polygon fill="#33312b" fill-opacity="1.000000" points="110,100 157,72 151,90" />
<polygon fill="#8b8c7e" fill-opacity="1.000000" points="168,111 171,102 177,124" />
<polygon fill="#7b7b60" fill-opacity="1.000000" points="128,164 123,162 128,169" />
<polygon fill="#595744" fill-opacity="1.000000" points="102,162 106,147 124,158" />
<polygon fill="#4b4336" fill-opacity="1.000000" points="139,82 152,59 124,58" />
<polygon fill="#b9b192" fill-opacity="1.000000" points="17,195 15,190 22,181" />
<polygon fill="#706b2b" fill-opacity="1.000000" points="131,189 139,188 140,175" />
<polygon fill="#3f392f" fill-opacity="1.000000" points="71,85 88,72 125,75" />
<polygon fill="#b77f41" fill-opacity="1.000000" points="154,41 151,36 160,31" />
<polygon fill="#9f5837" fill-opacity="1.000000" points="154,8 162,13 157,7" />
<polygon fill="#959376" fill-opacity="1.000000" points="41,140 31,143 37,144" />
<polygon fill="#6f6a3f" fill-opacity="1.000000" points="93,184 65,198 80,182" />
<polygon fill="#c4c2b3" fill-opacity="1.000000" points="84,231 72,219 56,216" />
<polygon fill="#9e987e" fill-opacity="1.000000" points="174,149 165,147 181,159" />
<polygon fill="#beb99f" fill-opacity="1.000000" points="184,158 178,140 186,149" />
<polygon fill="#594f3d" fill-opacity="1.000000" points="122,146 130,140 121,131" />
<polygon fill="#bb7e55" fill-opacity="1.000000" points="166,9 164,6 155,6" />
<polygon fill="#9a856b" fill-opacity="1.000000" points="153,200 158,205 152,206" />
<polygon fill="#653e30" fill-opacity="1.000000" points="123,135 128,129 119,126" />
<polygon fill="#a7a285" fill-opacity="1.000000" points="81,233 85,232 81,224" />
<polygon fill="#d9d4cd" fill-opacity="1.000000" points="38,209 35,271 119,254" />
<polygon fill="#c9c2b0" fill-opacity="1.000000" points="110,133 122,114 121,124" />
<polygon fill="#5c5c49" fill-opacity="1.000000" points="103,140 116,136 99,136" />
<polygon fill="#76523d" fill-opacity="1.000000" points="132,217 135,205 138,208" />
<polygon fill="#ddd5c1" fill-opacity="1.000000" points="172,271 177,222 190,224" />
<polygon fill="#a5a88f" fill-opacity="1.000000" points="189,143 178,126 191,131" />
<polygon fill="#40382d" fill-opacity="1.000000" points="132,28 149,16 137,16" />
<polygon fill="#c5c4b2" fill-opacity="1.000000" points="28,91 20,95 29,94" />
<polygon fill="#868671" fill-opacity="1.000000" points="117,206 106,207 124,192" />
<polygon fill="#5e5448" fill-opacity="1.000000" points="176,214 176,221 180,221" />
<polygon fill="#aeafa4" fill-opacity="1.000000" points="97,63 86,54 90,68" />
<polygon fill="#d3cec1" fill-opacity="1.000000" points="163,224 162,218 144,220" />
<polygon fill="#8c856b" fill-opacity="1.000000" points="187,203 189,203 186,210" />
<polygon fill="#a7a489" fill-opacity="1.000000" points="24,136 39,122 36,132" />
<polygon fill="#6a6a58" fill-opacity="1.000000" points="150,153 146,166 141,146" />
<polygon fill="#bcb290" fill-opacity="1.000000" points="49,175 33,176 31,199" />
<polygon fill="#817865" fill-opacity="1.000000" points="91,208 87,194 91,200" />
<polygon fill="#a19d85" fill-opacity="1.000000" points="85,132 69,142 85,139" />
<polygon fill="#a6a796" fill-opacity="1.000000" points="187,108 171,94 177,90" />
<polygon fill="#c98961" fill-opacity="1.000000" points="147,42 155,47 159,56" />
<polygon fill="#9e9875" fill-opacity="1.000000" points="80,202 85,193 83,201" />
<polygon fill="#868977" fill-opacity="1.000000" points="97,124 102,122 102,130" />
<polygon fill="#c7c6b8" fill-opacity="1.000000" points="31,80 29,70 46,59" />
<polygon fill="#afafa0" fill-opacity="1.000000" points="132,208 115,214 124,205" />
<polygon fill="#98998a" fill-opacity="1.000000" points="62,201 54,209 60,210" />
<polygon fill="#86794e" fill-opacity="1.000000" points="75,199 77,211 82,190" />
<polygon fill="#413930" fill-opacity="1.000000" points="133,50 120,34 125,48" />
<polygon fill="#8c8d82" fill-opacity="1.000000" points="37,100 40,112 58,80" />
<polygon fill="#625a4c" fill-opacity="1.000000" points="162,164 168,170 168,167" />
<polygon fill="#b4af99" fill-opacity="1.000000" points="88,123 100,120 88,128" />
<polygon fill="#c8c2ac" fill-opacity="1.000000" points="85,28 90,35 82,33" />
<polygon fill="#848575" fill-opacity="1.000000" points="151,192 157,183 141,179" />
<polygon fill="#dad6ca" fill-opacity="1.000000" points="12,102 25,29 30,80" />
<polygon fill="#d9d0ba" fill-opacity="1.000000" points="193,232 181,208 183,230" />
<polygon fill="#c9c6b2" fill-opacity="1.000000" points="71,37 66,47 52,45" />
<polygon fill="#595243" fill-opacity="1.000000" points="136,104 136,93 139,93" />
<polygon fill="#7f8066" fill-opacity="1.000000" points="91,216 103,212 99,208" />
<polygon fill="#676854" fill-opacity="1.000000" points="134,148 146,151 118,156" />
<polygon fill="#a59e81" fill-opacity="1.000000" points="93,225 91,232 93,229" />
<polygon fill="#aea792" fill-opacity="1.000000" points="55,28 57,29 56,36" />
<polygon fill="#d0c9ba" fill-opacity="1.000000" points="54,29 64,29 59,24" />
<polygon fill="#bdb79f" fill-opacity="1.000000" points="156,137 159,137 160,141" />
<polygon fill="#dcc06c" fill-opacity="1.000000" points="171,32 172,27 183,39" />
<polygon fill="#828578" fill-opacity="1.000000" points="149,104 162,109 159,105" />
<polygon fill="#cec9bd" fill-opacity="1.000000" points="157,220 167,217 165,211" />
<polygon fill="#7e7f6c" fill-opacity="1.000000" points="137,152 143,160 132,156" />
<polygon fill="#a4a38f" fill-opacity="1.000000" points="66,50 61,50 68,46" />
<polygon fill="#bcb8a9" fill-opacity="1.000000" points="108,106 132,107 117,116" />
<polygon fill="#9c9f8d" fill-opacity="1.000000" points="171,104 158,103 170,95" />
<polygon fill="#88887d" fill-opacity="1.000000" points="169,95 149,97 168,88" />
<polygon fill="#6b641a" fill-opacity="1.000000" points="132,182 117,169 129,191" />
<polygon fill="#7d7e71" fill-opacity="1.000000" points="153,135 137,138 127,151" />
<polygon fill="#79725c" fill-opacity="1.000000" points="24,175 18,179 16,185" />
<polygon fill="#514835" fill-opacity="1.000000" points="178,129 177,146 175,137" />
<polygon fill="#bdb799" fill-opacity="1.000000" points="71,185 68,195 76,183" />
<polygon fill="#713f33" fill-opacity="1.000000" points="138,59 137,53 144,59" />
<polygon fill="#c3be9f" fill-opacity="1.000000" points="9,205 6,203 5,212" />
<polygon fill="#a9a78f" fill-opacity="1.000000" points="146,119 135,122 132,118" />
<polygon fill="#474438" fill-opacity="1.000000" points="47,118 47,108 38,118" />
<polygon fill="#a6a79e" fill-opacity="1.000000" points="79,72 64,70 77,60" />
<polygon fill="#474130" fill-opacity="1.000000" points="175,123 167,115 170,128" />
<polygon fill="#3b3931" fill-opacity="1.000000" points="38,130 52,134 58,130" />
</g>
</svg>