<svg xmlns="http://www.w3.org/2000/svg" version="1.1" width="800" height="418">
<rect x="0" y="0" width="800" height="418" fill="#77b5cf" />
<g transform="scale(2.000000) translate(0.5 0.5)">
<polygon fill="#648297" fill-opacity="1.000000" points="272,170 68,62 130,195" />
<polygon fill="#d0e0ed" fill-opacity="1.000000" points="159,119 333,117 202,58" />
<polygon fill="#8bd5f0" fill-opacity="1.000000" points="-4,87 384,2 -1,-16" />
<polygon fill="#626f7e" fill-opacity="1.000000" points="299,67 361,129 200,46" />
<polygon fill="#6e8295" fill-opacity="1.000000" points="53,159 180,14 218,51" />
<polygon fill="#599bb6" fill-opacity="1.000000" points="338,224 356,119 207,129" />
<polygon fill="#56aecc" fill-opacity="1.000000" points="-16,212 84,139 239,224" />
<polygon fill="#77c7ea" fill-opacity="1.000000" points="401,-9 223,41 415,124" />
<polygon fill="#8ad9f4" fill-opacity="1.000000" points="168,48 173,-16 93,91" />
<polygon fill="#7acce9" fill-opacity="1.000000" points="91,114 6,-9 -16,214" />
<polygon fill="#97a4b7" fill-opacity="1.000000" points="153,173 230,157 162,132" />
<polygon fill="#495c6c" fill-opacity="1.000000" points="95,131 134,137 74,58" />
<polygon fill="#4a5865" fill-opacity="1.000000" points="333,97 328,144 354,137" />
<polygon fill="#54aecb" fill-opacity="1.000000" points="409,195 266,145 195,221" />
<polygon fill="#b4c6df" fill-opacity="1.000000" points="179,124 153,98 181,53" />
<polygon fill="#516677" fill-opacity="1.000000" points="191,191 242,171 255,120" />
<polygon fill="#7cd2ea" fill-opacity="1.000000" points="389,224 354,61 349,158" />
<polygon fill="#c1d4ea" fill-opacity="1.000000" points="283,85 319,134 279,122" />
<polygon fill="#617a8e" fill-opacity="1.000000" points="258,117 218,151 323,140" />
<polygon fill="#979eb1" fill-opacity="1.000000" points="250,72 154,74 214,55" />
<polygon fill="#4e5d6d" fill-opacity="1.000000" points="168,120 149,97 139,124" />
<polygon fill="#536373" fill-opacity="1.000000" points="113,81 156,58 88,145" />
<polygon fill="#465d6f" fill-opacity="1.000000" points="157,190 178,169 234,175" />
<polygon fill="#77c5e5" fill-opacity="1.000000" points="95,49 95,101 127,68" />
<polygon fill="#dfecf3" fill-opacity="1.000000" points="248,74 153,93 315,108" />
<polygon fill="#97e4fa" fill-opacity="1.000000" points="-16,5 142,48 185,-16" />
<polygon fill="#9decfc" fill-opacity="1.000000" points="217,47 156,-16 247,-12" />
<polygon fill="#6b798a" fill-opacity="1.000000" points="232,64 169,53 172,7" />
<polygon fill="#69bed9" fill-opacity="1.000000" points="49,216 -5,214 19,99" />
<polygon fill="#b2cde9" fill-opacity="1.000000" points="167,119 150,90 252,124" />
<polygon fill="#4da7c6" fill-opacity="1.000000" points="361,146 286,140 339,224" />
<polygon fill="#a0aec0" fill-opacity="1.000000" points="218,174 218,151 165,141" />
<polygon fill="#444a4f" fill-opacity="1.000000" points="325,125 313,125 315,117" />
<polygon fill="#8f9bb0" fill-opacity="1.000000" points="334,129 326,108 319,133" />
<polygon fill="#485a6a" fill-opacity="1.000000" points="132,126 79,132 110,85" />
<polygon fill="#46505c" fill-opacity="1.000000" points="317,103 344,106 299,75" />
<polygon fill="#499ebd" fill-opacity="1.000000" points="211,181 206,224 152,193" />
<polygon fill="#62bbd6" fill-opacity="1.000000" points="242,155 272,224 265,141" />
<polygon fill="#83d5f1" fill-opacity="1.000000" points="35,3 36,157 88,103" />
<polygon fill="#69bad9" fill-opacity="1.000000" points="382,14 356,76 400,191" />
<polygon fill="#5589a8" fill-opacity="1.000000" points="64,147 89,163 97,133" />
<polygon fill="#374754" fill-opacity="1.000000" points="230,144 225,174 246,170" />
<polygon fill="#89d8f9" fill-opacity="1.000000" points="363,25 361,-16 218,27" />
<polygon fill="#87d5f2" fill-opacity="1.000000" points="78,9 99,85 47,27" />
<polygon fill="#8492a6" fill-opacity="1.000000" points="139,116 135,89 179,55" />
<polygon fill="#adacbc" fill-opacity="1.000000" points="263,74 286,88 238,74" />
<polygon fill="#71c1e4" fill-opacity="1.000000" points="271,55 342,102 342,52" />
<polygon fill="#61b6d1" fill-opacity="1.000000" points="415,171 369,119 381,203" />
<polygon fill="#37424c" fill-opacity="1.000000" points="348,133 349,118 332,98" />
<polygon fill="#515662" fill-opacity="1.000000" points="283,86 295,72 258,60" />
<polygon fill="#404c59" fill-opacity="1.000000" points="89,90 76,82 78,59" />
<polygon fill="#8999ae" fill-opacity="1.000000" points="142,140 213,165 151,172" />
<polygon fill="#91909f" fill-opacity="1.000000" points="309,94 279,86 328,115" />
<polygon fill="#8adff4" fill-opacity="1.000000" points="369,163 346,109 357,70" />
<polygon fill="#e5f4f6" fill-opacity="1.000000" points="269,88 278,119 211,105" />
<polygon fill="#7dcdef" fill-opacity="1.000000" points="259,26 211,44 281,65" />
<polygon fill="#5c8199" fill-opacity="1.000000" points="56,149 77,145 40,167" />
<polygon fill="#a1d8e6" fill-opacity="1.000000" points="400,203 361,204 370,214" />
<polygon fill="#536173" fill-opacity="1.000000" points="171,138 162,119 184,129" />
<polygon fill="#4a728d" fill-opacity="1.000000" points="193,190 230,177 190,176" />
<polygon fill="#9fbbd8" fill-opacity="1.000000" points="256,117 202,124 236,132" />
<polygon fill="#c3d5ed" fill-opacity="1.000000" points="171,101 191,72 156,95" />
<polygon fill="#808796" fill-opacity="1.000000" points="253,141 247,118 274,120" />
<polygon fill="#6b788a" fill-opacity="1.000000" points="169,7 176,53 185,16" />
<polygon fill="#4aa4c3" fill-opacity="1.000000" points="285,147 295,224 358,191" />
<polygon fill="#5fbad8" fill-opacity="1.000000" points="65,155 101,173 67,216" />
<polygon fill="#4faccb" fill-opacity="1.000000" points="106,224 172,210 102,139" />
<polygon fill="#a8f3fc" fill-opacity="1.000000" points="159,19 43,0 89,-14" />
<polygon fill="#616a7a" fill-opacity="1.000000" points="227,67 255,67 200,40" />
<polygon fill="#5bbfda" fill-opacity="1.000000" points="212,224 208,184 232,180" />
<polygon fill="#354b58" fill-opacity="1.000000" points="319,143 348,143 347,129" />
<polygon fill="#7dcfed" fill-opacity="1.000000" points="50,24 44,160 81,90" />
<polygon fill="#80cbea" fill-opacity="1.000000" points="154,58 170,45 170,33" />
<polygon fill="#68bfda" fill-opacity="1.000000" points="373,204 351,166 353,116" />
<polygon fill="#588eab" fill-opacity="1.000000" points="183,124 214,130 190,132" />
<polygon fill="#445869" fill-opacity="1.000000" points="127,137 88,134 92,95" />
<polygon fill="#778396" fill-opacity="1.000000" points="144,173 127,124 164,124" />
<polygon fill="#77d0eb" fill-opacity="1.000000" points="43,173 35,207 33,142" />
<polygon fill="#66bed8" fill-opacity="1.000000" points="281,203 285,146 271,152" />
<polygon fill="#4d6474" fill-opacity="1.000000" points="271,120 266,131 291,130" />
<polygon fill="#637386" fill-opacity="1.000000" points="117,84 135,84 123,117" />
<polygon fill="#479fbd" fill-opacity="1.000000" points="250,224 237,192 246,165" />
<polygon fill="#8fdefb" fill-opacity="1.000000" points="272,36 219,14 285,-16" />
<polygon fill="#a9b0c4" fill-opacity="1.000000" points="177,75 207,61 225,71" />
<polygon fill="#9bb8d5" fill-opacity="1.000000" points="320,126 328,137 291,128" />
<polygon fill="#646370" fill-opacity="1.000000" points="302,81 322,107 286,83" />
<polygon fill="#69c3d9" fill-opacity="1.000000" points="202,132 225,143 235,136" />
<polygon fill="#3b4a58" fill-opacity="1.000000" points="158,117 149,99 144,115" />
<polygon fill="#33434f" fill-opacity="1.000000" points="209,174 183,177 194,169" />
<polygon fill="#6ebee0" fill-opacity="1.000000" points="354,124 324,79 339,49" />
<polygon fill="#a2afc4" fill-opacity="1.000000" points="184,78 155,91 182,55" />
<polygon fill="#83d6f1" fill-opacity="1.000000" points="82,128 68,139 66,82" />
<polygon fill="#81d1f4" fill-opacity="1.000000" points="355,31 359,90 316,-16" />
<polygon fill="#687485" fill-opacity="1.000000" points="191,24 175,8 180,56" />
<polygon fill="#74c4e5" fill-opacity="1.000000" points="33,145 -2,37 30,38" />
<polygon fill="#717483" fill-opacity="1.000000" points="152,78 170,51 143,64" />
<polygon fill="#82d4f1" fill-opacity="1.000000" points="78,46 68,114 52,100" />
<polygon fill="#dbe5f1" fill-opacity="1.000000" points="277,87 310,123 313,107" />
<polygon fill="#8ddbf7" fill-opacity="1.000000" points="95,53 -4,8 121,15" />
<polygon fill="#7896ac" fill-opacity="1.000000" points="87,142 85,131 57,147" />
<polygon fill="#c6d0e0" fill-opacity="1.000000" points="220,155 216,150 206,157" />
<polygon fill="#537c98" fill-opacity="1.000000" points="308,137 264,149 271,131" />
<polygon fill="#626a78" fill-opacity="1.000000" points="242,150 222,147 256,127" />
<polygon fill="#3e4244" fill-opacity="1.000000" points="311,118 312,123 324,124" />
<polygon fill="#bec7d6" fill-opacity="1.000000" points="200,152 183,141 184,151" />
<polygon fill="#4da7c7" fill-opacity="1.000000" points="351,141 289,160 360,195" />
<polygon fill="#5e6c7d" fill-opacity="1.000000" points="130,142 104,138 142,116" />
<polygon fill="#3d4855" fill-opacity="1.000000" points="75,65 92,108 93,84" />
<polygon fill="#84d3f6" fill-opacity="1.000000" points="381,-16 415,-3 395,42" />
<polygon fill="#656876" fill-opacity="1.000000" points="324,104 337,134 342,125" />
<polygon fill="#91e5fa" fill-opacity="1.000000" points="38,140 37,73 48,101" />
<polygon fill="#8a9aae" fill-opacity="1.000000" points="202,145 192,162 213,173" />
<polygon fill="#56b7d7" fill-opacity="1.000000" points="157,178 136,170 141,224" />
<polygon fill="#e3eff5" fill-opacity="1.000000" points="303,121 301,102 319,115" />
<polygon fill="#475968" fill-opacity="1.000000" points="159,188 181,169 168,190" />
<polygon fill="#b7b8cb" fill-opacity="1.000000" points="263,80 240,68 214,72" />
<polygon fill="#56687a" fill-opacity="1.000000" points="242,56 200,43 189,54" />
<polygon fill="#a5f4fb" fill-opacity="1.000000" points="211,44 221,-10 200,32" />
<polygon fill="#28353e" fill-opacity="1.000000" points="243,163 233,171 239,155" />
<polygon fill="#61b7d1" fill-opacity="1.000000" points="-1,222 28,135 25,224" />
<polygon fill="#2a383f" fill-opacity="1.000000" points="331,140 337,136 328,132" />
<polygon fill="#bed2ec" fill-opacity="1.000000" points="314,130 285,101 270,118" />
<polygon fill="#8392a2" fill-opacity="1.000000" points="160,54 178,40 180,47" />
<polygon fill="#6b6975" fill-opacity="1.000000" points="272,67 281,84 238,62" />
<polygon fill="#a0effc" fill-opacity="1.000000" points="152,-9 127,3 139,65" />
<polygon fill="#8c91a3" fill-opacity="1.000000" points="241,137 249,119 235,135" />
<polygon fill="#5d768b" fill-opacity="1.000000" points="199,150 223,144 205,135" />
<polygon fill="#8ddcf8" fill-opacity="1.000000" points="47,19 42,82 21,-13" />
<polygon fill="#c7dfee" fill-opacity="1.000000" points="205,91 242,125 176,97" />
<polygon fill="#537c94" fill-opacity="1.000000" points="152,175 131,165 139,163" />
<polygon fill="#4a6b82" fill-opacity="1.000000" points="310,141 329,143 330,137" />
<polygon fill="#9297a5" fill-opacity="1.000000" points="159,64 181,55 158,77" />
<polygon fill="#9fbede" fill-opacity="1.000000" points="204,121 176,123 161,112" />
<polygon fill="#7990a7" fill-opacity="1.000000" points="149,143 135,164 161,175" />
<polygon fill="#86d9f4" fill-opacity="1.000000" points="88,106 67,77 82,127" />
<polygon fill="#768ba2" fill-opacity="1.000000" points="223,167 217,173 220,164" />
<polygon fill="#a0a0af" fill-opacity="1.000000" points="288,85 277,87 301,99" />
<polygon fill="#f4fbfb" fill-opacity="1.000000" points="264,88 283,95 259,116" />
<polygon fill="#6cc5df" fill-opacity="1.000000" points="267,183 254,151 263,140" />
<polygon fill="#7d95af" fill-opacity="1.000000" points="143,114 130,105 150,91" />
<polygon fill="#485665" fill-opacity="1.000000" points="235,148 230,165 222,144" />
<polygon fill="#9af0fb" fill-opacity="1.000000" points="353,111 365,134 355,87" />
<polygon fill="#7ecfee" fill-opacity="1.000000" points="399,135 415,96 387,77" />
<polygon fill="#627e92" fill-opacity="1.000000" points="80,56 76,61 76,56" />
<polygon fill="#9c9fb0" fill-opacity="1.000000" points="264,128 255,138 258,125" />
<polygon fill="#6e7689" fill-opacity="1.000000" points="162,111 145,136 156,137" />
<polygon fill="#60869f" fill-opacity="1.000000" points="96,90 97,84 95,82" />
<polygon fill="#8adbf8" fill-opacity="1.000000" points="212,44 231,22 233,52" />
<polygon fill="#e5f4f6" fill-opacity="1.000000" points="257,85 214,106 215,75" />
<polygon fill="#4e535e" fill-opacity="1.000000" points="122,76 143,66 126,84" />
<polygon fill="#6dbbde" fill-opacity="1.000000" points="266,59 296,72 288,62" />
<polygon fill="#545f6e" fill-opacity="1.000000" points="261,62 216,48 234,63" />
<polygon fill="#5db2cc" fill-opacity="1.000000" points="396,138 384,201 415,205" />
<polygon fill="#6fc0dc" fill-opacity="1.000000" points="361,84 382,98 374,158" />
<polygon fill="#bfcadd" fill-opacity="1.000000" points="222,155 222,158 212,157" />
<polygon fill="#3b4b5a" fill-opacity="1.000000" points="105,102 89,102 101,120" />
<polygon fill="#8da4be" fill-opacity="1.000000" points="324,122 328,138 314,134" />
<polygon fill="#86899a" fill-opacity="1.000000" points="242,67 225,69 206,59" />
<polygon fill="#4e87a9" fill-opacity="1.000000" points="91,153 76,146 84,166" />
<polygon fill="#82d4f1" fill-opacity="1.000000" points="14,71 0,95 8,130" />
<polygon fill="#58b2ce" fill-opacity="1.000000" points="249,193 255,147 263,205" />
<polygon fill="#5db6cf" fill-opacity="1.000000" points="340,207 394,224 404,208" />
<polygon fill="#6f7a8c" fill-opacity="1.000000" points="128,153 130,125 141,124" />
<polygon fill="#81d1f1" fill-opacity="1.000000" points="128,71 94,44 128,40" />
<polygon fill="#3f4751" fill-opacity="1.000000" points="337,118 341,107 346,114" />
<polygon fill="#6dbce1" fill-opacity="1.000000" points="359,64 366,26 383,19" />
<polygon fill="#77cae5" fill-opacity="1.000000" points="48,98 44,159 66,140" />
<polygon fill="#485460" fill-opacity="1.000000" points="194,169 165,182 176,170" />
<polygon fill="#434953" fill-opacity="1.000000" points="280,67 282,81 294,76" />
<polygon fill="#48a5c5" fill-opacity="1.000000" points="203,193 152,206 222,224" />
<polygon fill="#3d4a54" fill-opacity="1.000000" points="223,159 226,166 218,162" />
<polygon fill="#59b7d6" fill-opacity="1.000000" points="87,224 105,146 81,170" />
<polygon fill="#8995a8" fill-opacity="1.000000" points="179,72 188,70 185,51" />
<polygon fill="#426a82" fill-opacity="1.000000" points="104,131 91,139 88,131" />
<polygon fill="#77c7e8" fill-opacity="1.000000" points="107,87 110,55 123,74" />
<polygon fill="#6b6976" fill-opacity="1.000000" points="294,88 300,82 278,84" />
<polygon fill="#a2abba" fill-opacity="1.000000" points="160,137 187,140 160,152" />
<polygon fill="#596472" fill-opacity="1.000000" points="171,52 172,58 184,48" />
<polygon fill="#49a3c1" fill-opacity="1.000000" points="115,216 108,161 99,224" />
<polygon fill="#75c6e1" fill-opacity="1.000000" points="357,136 353,109 338,93" />
<polygon fill="#69c2dd" fill-opacity="1.000000" points="66,183 82,164 69,152" />
<polygon fill="#517793" fill-opacity="1.000000" points="289,143 270,131 269,149" />
<polygon fill="#53adca" fill-opacity="1.000000" points="43,165 41,224 75,224" />
<polygon fill="#ced2e6" fill-opacity="1.000000" points="270,85 252,77 259,85" />
<polygon fill="#80ceee" fill-opacity="1.000000" points="164,52 148,60 165,20" />
<polygon fill="#474e58" fill-opacity="1.000000" points="264,68 266,63 253,59" />
<polygon fill="#b3cfec" fill-opacity="1.000000" points="241,125 220,122 245,118" />
<polygon fill="#536a7e" fill-opacity="1.000000" points="117,92 129,120 113,111" />
<polygon fill="#70707e" fill-opacity="1.000000" points="232,65 244,60 260,67" />
<polygon fill="#7a8798" fill-opacity="1.000000" points="201,40 187,49 195,30" />
<polygon fill="#81dcf4" fill-opacity="1.000000" points="372,201 375,165 357,130" />
<polygon fill="#496e84" fill-opacity="1.000000" points="195,183 174,181 166,190" />
<polygon fill="#86d3f3" fill-opacity="1.000000" points="85,16 16,18 51,30" />
<polygon fill="#75889e" fill-opacity="1.000000" points="212,46 201,60 207,60" />
<polygon fill="#95e3fb" fill-opacity="1.000000" points="96,46 107,25 68,27" />
<polygon fill="#77c7eb" fill-opacity="1.000000" points="315,43 336,99 314,79" />
<polygon fill="#293a43" fill-opacity="1.000000" points="346,141 349,127 339,136" />
<polygon fill="#7ea0bd" fill-opacity="1.000000" points="186,123 174,124 166,119" />
<polygon fill="#a1a3b5" fill-opacity="1.000000" points="325,111 310,103 326,119" />
<polygon fill="#a1bdd9" fill-opacity="1.000000" points="301,130 293,122 279,122" />
<polygon fill="#85d8f3" fill-opacity="1.000000" points="66,137 71,70 89,112" />
<polygon fill="#78c8e9" fill-opacity="1.000000" points="63,50 50,91 44,50" />
<polygon fill="#a9c3e1" fill-opacity="1.000000" points="154,100 167,118 162,103" />
<polygon fill="#699fbc" fill-opacity="1.000000" points="264,138 265,141 272,142" />
<polygon fill="#72c4df" fill-opacity="1.000000" points="14,98 8,153 34,118" />
<polygon fill="#4f82a2" fill-opacity="1.000000" points="193,188 196,195 210,184" />
<polygon fill="#4c6474" fill-opacity="1.000000" points="282,125 271,123 256,143" />
<polygon fill="#6ec1dc" fill-opacity="1.000000" points="390,109 415,154 401,160" />
<polygon fill="#6e7b8a" fill-opacity="1.000000" points="251,141 237,151 252,148" />
<polygon fill="#767c8b" fill-opacity="1.000000" points="240,137 264,119 247,122" />
<polygon fill="#48535f" fill-opacity="1.000000" points="79,59 83,70 76,64" />
<polygon fill="#55758c" fill-opacity="1.000000" points="51,154 63,154 40,165" />
<polygon fill="#afb6c2" fill-opacity="1.000000" points="171,71 181,57 172,61" />
<polygon fill="#7bc9ee" fill-opacity="1.000000" points="391,24 363,20 361,-6" />
<polygon fill="#444d58" fill-opacity="1.000000" points="75,69 79,64 83,69" />
<polygon fill="#8495ab" fill-opacity="1.000000" points="211,148 222,152 213,145" />
<polygon fill="#99e6fc" fill-opacity="1.000000" points="35,-16 47,21 34,18" />
<polygon fill="#93909e" fill-opacity="1.000000" points="249,75 239,67 259,75" />
<polygon fill="#92a1b7" fill-opacity="1.000000" points="158,149 192,167 160,164" />
<polygon fill="#c2d3ed" fill-opacity="1.000000" points="277,103 304,112 270,118" />
<polygon fill="#94e1fb" fill-opacity="1.000000" points="135,19 97,10 119,9" />
<polygon fill="#9997a6" fill-opacity="1.000000" points="264,77 273,84 276,82" />
<polygon fill="#a5f5fc" fill-opacity="1.000000" points="215,-11 192,-16 215,46" />
<polygon fill="#4d505b" fill-opacity="1.000000" points="341,107 341,127 326,101" />
<polygon fill="#4d5f70" fill-opacity="1.000000" points="94,96 108,106 95,102" />
<polygon fill="#88d8f6" fill-opacity="1.000000" points="70,37 98,49 92,79" />
<polygon fill="#586273" fill-opacity="1.000000" points="128,123 112,120 126,139" />
<polygon fill="#4ba7c7" fill-opacity="1.000000" points="155,190 154,177 164,180" />
<polygon fill="#52b3d2" fill-opacity="1.000000" points="242,224 239,176 220,183" />
<polygon fill="#83a1be" fill-opacity="1.000000" points="145,102 133,118 143,113" />
<polygon fill="#a9b9d3" fill-opacity="1.000000" points="171,74 149,97 182,78" />
<polygon fill="#404b56" fill-opacity="1.000000" points="310,83 330,96 316,100" />
<polygon fill="#92e0fb" fill-opacity="1.000000" points="169,4 147,7 168,28" />
<polygon fill="#81d1f4" fill-opacity="1.000000" points="261,41 243,29 294,29" />
<polygon fill="#828a9f" fill-opacity="1.000000" points="145,126 133,140 161,122" />
<polygon fill="#8695a6" fill-opacity="1.000000" points="67,144 55,153 62,144" />
<polygon fill="#daecf3" fill-opacity="1.000000" points="222,90 186,80 174,95" />
<polygon fill="#b2b3c3" fill-opacity="1.000000" points="301,99 309,104 307,100" />
<polygon fill="#4fa8c6" fill-opacity="1.000000" points="297,139 311,190 282,148" />
<polygon fill="#7fd3ee" fill-opacity="1.000000" points="64,142 82,96 79,131" />
<polygon fill="#76c6e9" fill-opacity="1.000000" points="238,52 282,49 272,62" />
<polygon fill="#737a8a" fill-opacity="1.000000" points="337,128 331,132 333,120" />
<polygon fill="#557c97" fill-opacity="1.000000" points="264,136 275,129 294,134" />
<polygon fill="#86a9c9" fill-opacity="1.000000" points="215,128 237,133 231,127" />
<polygon fill="#77c5e6" fill-opacity="1.000000" points="-13,27 28,19 31,31" />
<polygon fill="#66bbd5" fill-opacity="1.000000" points="353,139 349,144 351,126" />
<polygon fill="#62bbd6" fill-opacity="1.000000" points="289,224 278,203 283,174" />
<polygon fill="#4ea7c4" fill-opacity="1.000000" points="362,205 339,193 350,135" />
<polygon fill="#4f5968" fill-opacity="1.000000" points="140,120 129,121 146,124" />
<polygon fill="#bfc2d5" fill-opacity="1.000000" points="274,89 264,83 282,88" />
<polygon fill="#88dff8" fill-opacity="1.000000" points="38,168 45,121 35,143" />
<polygon fill="#59b2ce" fill-opacity="1.000000" points="41,167 68,152 41,183" />
<polygon fill="#a6c6e5" fill-opacity="1.000000" points="301,128 316,128 304,133" />
<polygon fill="#828da1" fill-opacity="1.000000" points="142,148 152,160 162,134" />
<polygon fill="#394856" fill-opacity="1.000000" points="228,146 232,157 240,155" />
<polygon fill="#456075" fill-opacity="1.000000" points="329,140 309,136 319,141" />
<polygon fill="#5db4d1" fill-opacity="1.000000" points="107,144 97,137 93,149" />
<polygon fill="#6b869f" fill-opacity="1.000000" points="122,115 134,107 136,117" />
<polygon fill="#7a8094" fill-opacity="1.000000" points="155,122 163,124 171,139" />
<polygon fill="#46a2c1" fill-opacity="1.000000" points="155,205 200,224 184,185" />
<polygon fill="#90c7d6" fill-opacity="1.000000" points="359,203 357,209 347,204" />
<polygon fill="#94e3fc" fill-opacity="1.000000" points="218,2 291,18 242,-8" />
<polygon fill="#46a1c0" fill-opacity="1.000000" points="324,163 306,224 347,216" />
<polygon fill="#82d2f5" fill-opacity="1.000000" points="341,19 360,35 350,100" />
<polygon fill="#72c1e4" fill-opacity="1.000000" points="30,48 33,82 -16,61" />
<polygon fill="#303b42" fill-opacity="1.000000" points="331,136 330,131 326,131" />
<polygon fill="#425d70" fill-opacity="1.000000" points="181,176 201,176 181,184" />
<polygon fill="#5d768a" fill-opacity="1.000000" points="304,78 296,74 300,82" />
<polygon fill="#53b1d0" fill-opacity="1.000000" points="124,165 112,209 111,149" />
<polygon fill="#55a8c4" fill-opacity="1.000000" points="188,129 206,134 201,129" />
<polygon fill="#ade6f3" fill-opacity="1.000000" points="370,210 381,205 372,202" />
<polygon fill="#73717e" fill-opacity="1.000000" points="286,86 311,99 300,88" />
<polygon fill="#6d8da6" fill-opacity="1.000000" points="143,168 160,175 180,168" />
<polygon fill="#cee4f1" fill-opacity="1.000000" points="301,124 309,125 302,110" />
<polygon fill="#72c1e5" fill-opacity="1.000000" points="402,64 386,78 385,24" />
<polygon fill="#dbf0f3" fill-opacity="1.000000" points="209,90 260,117 215,107" />
<polygon fill="#90ddf9" fill-opacity="1.000000" points="138,28 104,24 87,47" />
<polygon fill="#547d97" fill-opacity="1.000000" points="220,134 227,132 231,134" />
<polygon fill="#90e0f9" fill-opacity="1.000000" points="134,67 148,60 153,31" />
<polygon fill="#3f5161" fill-opacity="1.000000" points="158,109 147,103 148,99" />
<polygon fill="#70c6e1" fill-opacity="1.000000" points="5,190 10,147 -16,157" />
<polygon fill="#abf6fd" fill-opacity="1.000000" points="82,13 60,-16 159,-15" />
<polygon fill="#3f4448" fill-opacity="1.000000" points="313,117 319,119 321,127" />
<polygon fill="#73c2e7" fill-opacity="1.000000" points="344,37 328,24 328,53" />
<polygon fill="#ebf6f8" fill-opacity="1.000000" points="306,119 306,104 314,116" />
<polygon fill="#96a7bf" fill-opacity="1.000000" points="314,130 328,123 329,130" />
<polygon fill="#8c99aa" fill-opacity="1.000000" points="210,150 204,152 196,149" />
<polygon fill="#586171" fill-opacity="1.000000" points="332,132 342,135 342,127" />
<polygon fill="#929cb1" fill-opacity="1.000000" points="178,136 167,139 187,140" />
<polygon fill="#8cabc8" fill-opacity="1.000000" points="305,133 314,136 326,131" />
<polygon fill="#65b4d8" fill-opacity="1.000000" points="386,92 360,61 381,44" />
<polygon fill="#a4c7e9" fill-opacity="1.000000" points="193,123 197,114 224,122" />
<polygon fill="#abb8cb" fill-opacity="1.000000" points="185,168 184,164 190,167" />
<polygon fill="#7dcdf1" fill-opacity="1.000000" points="293,35 293,67 282,26" />
<polygon fill="#97abc2" fill-opacity="1.000000" points="203,154 212,172 220,164" />
<polygon fill="#c9cce0" fill-opacity="1.000000" points="240,72 231,74 247,80" />
<polygon fill="#67737f" fill-opacity="1.000000" points="268,129 265,120 273,121" />
<polygon fill="#3f5564" fill-opacity="1.000000" points="285,128 268,129 275,124" />
<polygon fill="#7ccbef" fill-opacity="1.000000" points="323,12 336,14 346,-4" />
<polygon fill="#8bdbfa" fill-opacity="1.000000" points="334,15 367,7 349,30" />
</g>
</svg>