<svg xmlns="http://www.w3.org/2000/svg" version="1.1" width="1024" height="532">
<rect x="0" y="0" width="1024" height="532" fill="#77b6cf" />
<g transform="scale(4.000000) translate(0.5 0.5)">
<polygon fill="#638397" fill-opacity="1.000000" points="165,101 102,136 40,40" />
<polygon fill="#d1e2ed" fill-opacity="1.000000" points="129,37 103,75 211,73" />
<polygon fill="#8ad5ef" fill-opacity="1.000000" points="-14,-16 258,1 -1,54" />
<polygon fill="#738798" fill-opacity="1.000000" points="107,38 214,59 112,9" />
<polygon fill="#545f6c" fill-opacity="1.000000" points="224,94 187,46 221,68" />
<polygon fill="#576d7f" fill-opacity="1.000000" points="60,60 112,28 49,103" />
<polygon fill="#559fbb" fill-opacity="1.000000" points="135,80 228,87 218,148" />
<polygon fill="#8ad9f6" fill-opacity="1.000000" points="271,14 91,-15 142,32" />
<polygon fill="#55acca" fill-opacity="1.000000" points="158,148 45,82 20,132" />
<polygon fill="#7fd0ed" fill-opacity="1.000000" points="52,89 -16,80 43,0" />
<polygon fill="#97a4b6" fill-opacity="1.000000" points="145,98 99,84 103,109" />
<polygon fill="#75c6e7" fill-opacity="1.000000" points="260,1 271,104 166,26" />
<polygon fill="#627b8e" fill-opacity="1.000000" points="205,89 142,94 165,74" />
<polygon fill="#4a5e6e" fill-opacity="1.000000" points="45,33 62,83 85,91" />
<polygon fill="#51acc9" fill-opacity="1.000000" points="77,148 235,127 196,87" />
<polygon fill="#3c4f5d" fill-opacity="1.000000" points="139,113 149,90 157,108" />
<polygon fill="#bfd2e9" fill-opacity="1.000000" points="96,61 113,78 131,40" />
<polygon fill="#606471" fill-opacity="1.000000" points="180,41 140,33 205,66" />
<polygon fill="#586f80" fill-opacity="1.000000" points="207,91 224,90 199,74" />
<polygon fill="#95e4fa" fill-opacity="1.000000" points="89,42 -16,-15 118,-16" />
<polygon fill="#7bcbeb" fill-opacity="1.000000" points="87,38 61,62 67,21" />
<polygon fill="#7a8698" fill-opacity="1.000000" points="117,24 92,41 88,78" />
<polygon fill="#496173" fill-opacity="1.000000" points="110,106 141,111 101,122" />
<polygon fill="#d9e9f2" fill-opacity="1.000000" points="107,59 206,83 164,48" />
<polygon fill="#7dd4eb" fill-opacity="1.000000" points="244,92 240,143 222,53" />
<polygon fill="#7ccdeb" fill-opacity="1.000000" points="-16,4 25,111 50,30" />
<polygon fill="#556374" fill-opacity="1.000000" points="96,64 90,77 119,84" />
<polygon fill="#6e7b8c" fill-opacity="1.000000" points="125,17 109,3 109,41" />
<polygon fill="#5e8fa9" fill-opacity="1.000000" points="83,90 52,83 25,104" />
<polygon fill="#a0a7b9" fill-opacity="1.000000" points="132,37 105,42 160,48" />
<polygon fill="#78c8eb" fill-opacity="1.000000" points="145,30 257,3 212,51" />
<polygon fill="#67b9d5" fill-opacity="1.000000" points="264,102 247,148 230,23" />
<polygon fill="#919eb3" fill-opacity="1.000000" points="207,88 204,67 213,78" />
<polygon fill="#afcde9" fill-opacity="1.000000" points="157,78 112,62 112,78" />
<polygon fill="#9eeefc" fill-opacity="1.000000" points="97,-16 135,27 158,-8" />
<polygon fill="#cedbec" fill-opacity="1.000000" points="207,71 185,80 175,54" />
<polygon fill="#6bc0db" fill-opacity="1.000000" points="-16,124 30,148 16,59" />
<polygon fill="#60b9d3" fill-opacity="1.000000" points="168,88 177,148 155,110" />
<polygon fill="#3c4b56" fill-opacity="1.000000" points="210,84 224,78 221,90" />
<polygon fill="#82d4f0" fill-opacity="1.000000" points="58,67 26,101 21,11" />
<polygon fill="#a0aec0" fill-opacity="1.000000" points="105,89 139,96 140,110" />
<polygon fill="#475868" fill-opacity="1.000000" points="72,54 54,79 82,84" />
<polygon fill="#748599" fill-opacity="1.000000" points="104,76 97,110 71,94" />
<polygon fill="#99a4b7" fill-opacity="1.000000" points="129,41 97,58 112,35" />
<polygon fill="#617081" fill-opacity="1.000000" points="148,34 99,36 126,26" />
<polygon fill="#4ba6c4" fill-opacity="1.000000" points="225,87 230,119 165,148" />
<polygon fill="#86d9f3" fill-opacity="1.000000" points="220,68 234,84 226,23" />
<polygon fill="#8ad8f5" fill-opacity="1.000000" points="29,7 61,52 73,11" />
<polygon fill="#5fbad7" fill-opacity="1.000000" points="62,109 42,97 42,148" />
<polygon fill="#47a2c1" fill-opacity="1.000000" points="96,123 121,118 128,148" />
<polygon fill="#6abadc" fill-opacity="1.000000" points="229,18 248,16 245,81" />
<polygon fill="#3f4f5e" fill-opacity="1.000000" points="59,76 53,44 69,77" />
<polygon fill="#e7f4f6" fill-opacity="1.000000" points="157,74 138,47 187,61" />
<polygon fill="#58b4d2" fill-opacity="1.000000" points="63,86 47,136 73,97" />
<polygon fill="#434c58" fill-opacity="1.000000" points="224,78 218,68 213,90" />
<polygon fill="#8190a4" fill-opacity="1.000000" points="83,59 114,35 87,75" />
<polygon fill="#8c9bb0" fill-opacity="1.000000" points="94,91 99,107 138,105" />
<polygon fill="#b4b4c5" fill-opacity="1.000000" points="150,43 171,50 155,50" />
<polygon fill="#76aac4" fill-opacity="1.000000" points="126,82 142,90 161,78" />
<polygon fill="#6fc0e2" fill-opacity="1.000000" points="215,22 202,41 227,79" />
<polygon fill="#a3f0fc" fill-opacity="1.000000" points="55,7 20,-16 115,3" />
<polygon fill="#5fb8d3" fill-opacity="1.000000" points="155,98 182,94 188,148" />
<polygon fill="#96b3cf" fill-opacity="1.000000" points="192,82 205,87 207,80" />
<polygon fill="#bacfe9" fill-opacity="1.000000" points="198,83 182,64 173,75" />
<polygon fill="#485868" fill-opacity="1.000000" points="51,82 91,77 65,72" />
<polygon fill="#82d2f4" fill-opacity="1.000000" points="243,-16 271,10 174,21" />
<polygon fill="#a6c2e2" fill-opacity="1.000000" points="103,70 125,70 112,78" />
<polygon fill="#5abed9" fill-opacity="1.000000" points="135,146 152,115 134,117" />
<polygon fill="#9ed6e4" fill-opacity="1.000000" points="271,129 260,137 232,130" />
<polygon fill="#4b5865" fill-opacity="1.000000" points="55,47 49,40 50,36" />
<polygon fill="#505a67" fill-opacity="1.000000" points="199,51 181,43 175,50" />
<polygon fill="#434d58" fill-opacity="1.000000" points="196,51 216,64 199,62" />
<polygon fill="#848a99" fill-opacity="1.000000" points="172,76 158,74 162,90" />
<polygon fill="#517c97" fill-opacity="1.000000" points="199,88 173,80 170,94" />
<polygon fill="#a3bedc" fill-opacity="1.000000" points="139,80 153,83 158,75" />
<polygon fill="#7bcfea" fill-opacity="1.000000" points="30,98 29,69 56,72" />
<polygon fill="#75c5e6" fill-opacity="1.000000" points="23,79 -5,32 17,12" />
<polygon fill="#666a78" fill-opacity="1.000000" points="80,47 103,35 99,46" />
<polygon fill="#516b7d" fill-opacity="1.000000" points="169,86 173,76 187,82" />
<polygon fill="#596676" fill-opacity="1.000000" points="130,28 150,42 161,37" />
<polygon fill="#81d0ef" fill-opacity="1.000000" points="107,15 91,39 106,32" />
<polygon fill="#607689" fill-opacity="1.000000" points="66,86 87,83 79,101" />
<polygon fill="#56606f" fill-opacity="1.000000" points="142,107 162,83 144,92" />
<polygon fill="#62b7d1" fill-opacity="1.000000" points="18,147 17,87 -4,148" />
<polygon fill="#9598a8" fill-opacity="1.000000" points="212,79 209,70 196,62" />
<polygon fill="#4e8aab" fill-opacity="1.000000" points="60,99 47,93 54,104" />
<polygon fill="#3d4c5a" fill-opacity="1.000000" points="92,74 101,74 95,63" />
<polygon fill="#333f4b" fill-opacity="1.000000" points="147,93 155,102 150,109" />
<polygon fill="#a9aaba" fill-opacity="1.000000" points="165,50 183,57 176,51" />
<polygon fill="#3b4a57" fill-opacity="1.000000" points="121,107 134,111 114,112" />
<polygon fill="#d4e8f1" fill-opacity="1.000000" points="153,76 112,55 128,47" />
<polygon fill="#93e8fa" fill-opacity="1.000000" points="233,66 224,52 231,89" />
<polygon fill="#92e6fb" fill-opacity="1.000000" points="24,85 24,44 30,64" />
<polygon fill="#5db3cd" fill-opacity="1.000000" points="249,87 271,128 244,128" />
<polygon fill="#858491" fill-opacity="1.000000" points="197,63 182,55 191,57" />
<polygon fill="#e4eef5" fill-opacity="1.000000" points="196,75 191,64 205,72" />
<polygon fill="#7ccded" fill-opacity="1.000000" points="47,41 31,18 29,73" />
<polygon fill="#64707f" fill-opacity="1.000000" points="163,92 156,96 149,90" />
<polygon fill="#515661" fill-opacity="1.000000" points="80,47 81,53 92,41" />
<polygon fill="#5f91ae" fill-opacity="1.000000" points="124,85 109,77 139,82" />
<polygon fill="#676d7d" fill-opacity="1.000000" points="212,82 220,85 212,72" />
<polygon fill="#a5b1c6" fill-opacity="1.000000" points="113,50 96,61 115,36" />
<polygon fill="#67bdd8" fill-opacity="1.000000" points="235,116 225,75 224,100" />
<polygon fill="#456b81" fill-opacity="1.000000" points="54,82 57,88 65,84" />
<polygon fill="#9feefc" fill-opacity="1.000000" points="80,-3 103,-10 88,35" />
<polygon fill="#8fddf8" fill-opacity="1.000000" points="84,30 78,12 15,20" />
<polygon fill="#469fbc" fill-opacity="1.000000" points="152,123 159,137 157,106" />
<polygon fill="#56b7d6" fill-opacity="1.000000" points="97,112 85,107 97,148" />
<polygon fill="#bfcadb" fill-opacity="1.000000" points="142,99 137,101 136,94" />
<polygon fill="#b5bfcf" fill-opacity="1.000000" points="129,97 118,95 114,87" />
<polygon fill="#4fa9c7" fill-opacity="1.000000" points="225,94 184,89 232,123" />
<polygon fill="#85d6f7" fill-opacity="1.000000" points="217,9 225,57 233,-16" />
<polygon fill="#58b1cd" fill-opacity="1.000000" points="26,122 27,105 45,96" />
<polygon fill="#487490" fill-opacity="1.000000" points="118,117 131,120 135,113" />
<polygon fill="#3c4551" fill-opacity="1.000000" points="60,59 49,39 50,51" />
<polygon fill="#6c798a" fill-opacity="1.000000" points="121,40 115,8 123,15" />
<polygon fill="#8599af" fill-opacity="1.000000" points="128,106 96,108 90,98" />
<polygon fill="#5d758b" fill-opacity="1.000000" points="134,87 127,95 143,92" />
<polygon fill="#78d3ed" fill-opacity="1.000000" points="26,114 22,97 21,129" />
<polygon fill="#42494f" fill-opacity="1.000000" points="207,81 201,78 201,75" />
<polygon fill="#4da9c7" fill-opacity="1.000000" points="67,142 99,148 67,92" />
<polygon fill="#49a4c2" fill-opacity="1.000000" points="184,132 186,99 231,140" />
<polygon fill="#6cc4de" fill-opacity="1.000000" points="164,99 170,116 169,89" />
<polygon fill="#76c9e4" fill-opacity="1.000000" points="17,60 1,107 -16,106" />
<polygon fill="#89a2bb" fill-opacity="1.000000" points="203,86 209,88 207,78" />
<polygon fill="#7dcef0" fill-opacity="1.000000" points="149,18 201,18 150,33" />
<polygon fill="#91e1fb" fill-opacity="1.000000" points="145,18 137,-14 184,8" />
<polygon fill="#77c6e7" fill-opacity="1.000000" points="62,29 63,62 78,43" />
<polygon fill="#71788a" fill-opacity="1.000000" points="90,90 106,82 102,75" />
<polygon fill="#67c9dd" fill-opacity="1.000000" points="133,84 140,89 145,87" />
<polygon fill="#677283" fill-opacity="1.000000" points="123,21 108,5 115,27" />
<polygon fill="#2e3f48" fill-opacity="1.000000" points="218,88 209,83 214,90" />
<polygon fill="#535c6c" fill-opacity="1.000000" points="110,86 113,84 106,78" />
<polygon fill="#8390a2" fill-opacity="1.000000" points="117,45 128,38 118,37" />
<polygon fill="#bcbdd0" fill-opacity="1.000000" points="145,46 151,44 161,49" />
<polygon fill="#8796a7" fill-opacity="1.000000" points="109,22 113,31 109,30" />
<polygon fill="#7bcaee" fill-opacity="1.000000" points="233,11 260,22 234,-16" />
<polygon fill="#4b7590" fill-opacity="1.000000" points="131,111 149,112 131,117" />
<polygon fill="#7996ad" fill-opacity="1.000000" points="54,90 38,93 52,84" />
<polygon fill="#81d3f2" fill-opacity="1.000000" points="249,51 269,57 271,121" />
<polygon fill="#55acc8" fill-opacity="1.000000" points="188,148 174,134 172,105" />
<polygon fill="#83d3f2" fill-opacity="1.000000" points="86,43 83,26 61,27" />
<polygon fill="#c8deee" fill-opacity="1.000000" points="102,58 134,60 142,73" />
<polygon fill="#5989a3" fill-opacity="1.000000" points="147,83 138,83 147,86" />
<polygon fill="#3a3e42" fill-opacity="1.000000" points="199,77 205,78 203,75" />
<polygon fill="#3e4b57" fill-opacity="1.000000" points="145,106 141,101 146,101" />
<polygon fill="#6a788a" fill-opacity="1.000000" points="87,56 72,54 82,63" />
<polygon fill="#59859f" fill-opacity="1.000000" points="92,108 110,109 103,114" />
<polygon fill="#89e4f8" fill-opacity="1.000000" points="231,92 237,107 234,80" />
<polygon fill="#e3f5f6" fill-opacity="1.000000" points="140,67 176,74 137,49" />
<polygon fill="#8aa3bc" fill-opacity="1.000000" points="212,88 199,78 204,86" />
<polygon fill="#8e9db1" fill-opacity="1.000000" points="102,104 130,106 131,96" />
<polygon fill="#4e545e" fill-opacity="1.000000" points="171,40 163,38 165,43" />
<polygon fill="#90dcf9" fill-opacity="1.000000" points="29,12 -14,7 16,-1" />
<polygon fill="#71c1e4" fill-opacity="1.000000" points="168,36 199,33 199,49" />
<polygon fill="#72bdd3" fill-opacity="1.000000" points="245,131 225,146 270,133" />
<polygon fill="#557b95" fill-opacity="1.000000" points="187,84 196,90 205,87" />
<polygon fill="#838698" fill-opacity="1.000000" points="162,80 158,78 150,85" />
<polygon fill="#85d5f4" fill-opacity="1.000000" points="52,28 41,24 44,49" />
<polygon fill="#737b8e" fill-opacity="1.000000" points="83,78 85,84 97,78" />
<polygon fill="#9aa6b9" fill-opacity="1.000000" points="111,87 111,90 121,89" />
<polygon fill="#f4fafa" fill-opacity="1.000000" points="166,72 178,62 174,55" />
<polygon fill="#abf6fc" fill-opacity="1.000000" points="31,-1 60,6 95,-12" />
<polygon fill="#5ab7d5" fill-opacity="1.000000" points="32,148 62,96 58,148" />
<polygon fill="#a5f6fc" fill-opacity="1.000000" points="121,-16 136,28 138,-1" />
<polygon fill="#526172" fill-opacity="1.000000" points="84,87 71,85 74,62" />
<polygon fill="#84d7f2" fill-opacity="1.000000" points="43,35 42,89 55,70" />
<polygon fill="#9dbfe0" fill-opacity="1.000000" points="137,80 127,73 107,75" />
<polygon fill="#bfd7ec" fill-opacity="1.000000" points="151,79 146,73 161,73" />
<polygon fill="#425867" fill-opacity="1.000000" points="60,79 51,83 61,68" />
<polygon fill="#464b56" fill-opacity="1.000000" points="214,74 212,62 219,72" />
<polygon fill="#86d5f8" fill-opacity="1.000000" points="260,-16 249,12 271,52" />
<polygon fill="#d6deef" fill-opacity="1.000000" points="168,56 174,55 159,49" />
<polygon fill="#547c98" fill-opacity="1.000000" points="176,82 193,87 168,94" />
<polygon fill="#818da1" fill-opacity="1.000000" points="90,99 96,102 105,82" />
<polygon fill="#819bb7" fill-opacity="1.000000" points="86,65 93,63 91,72" />
<polygon fill="#66bfdb" fill-opacity="1.000000" points="42,117 44,97 55,108" />
<polygon fill="#56b0cc" fill-opacity="1.000000" points="165,108 160,126 170,148" />
<polygon fill="#454c56" fill-opacity="1.000000" points="180,53 180,43 188,47" />
<polygon fill="#608097" fill-opacity="1.000000" points="35,95 29,103 49,91" />
<polygon fill="#969aaa" fill-opacity="1.000000" points="163,86 168,83 169,77" />
<polygon fill="#a2aec6" fill-opacity="1.000000" points="207,80 205,71 211,80" />
<polygon fill="#2d3e48" fill-opacity="1.000000" points="223,81 223,85 211,89" />
<polygon fill="#aeb4c8" fill-opacity="1.000000" points="122,43 130,46 138,44" />
<polygon fill="#6e6c78" fill-opacity="1.000000" points="181,54 173,43 150,38" />
<polygon fill="#777e8d" fill-opacity="1.000000" points="152,85 161,76 176,77" />
<polygon fill="#54829a" fill-opacity="1.000000" points="94,110 83,104 89,103" />
<polygon fill="#adcbea" fill-opacity="1.000000" points="128,68 102,69 145,80" />
<polygon fill="#deeaf4" fill-opacity="1.000000" points="193,67 188,62 178,64" />
<polygon fill="#596b7d" fill-opacity="1.000000" points="140,35 129,24 125,33" />
<polygon fill="#a2abb8" fill-opacity="1.000000" points="116,40 118,35 105,40" />
<polygon fill="#4e8aaa" fill-opacity="1.000000" points="122,123 130,122 122,119" />
<polygon fill="#61b8d3" fill-opacity="1.000000" points="236,127 230,108 229,129" />
<polygon fill="#44525e" fill-opacity="1.000000" points="62,54 54,46 50,48" />
<polygon fill="#80d3f0" fill-opacity="1.000000" points="5,85 8,46 -2,54" />
<polygon fill="#738091" fill-opacity="1.000000" points="127,25 117,36 118,27" />
<polygon fill="#54b1d0" fill-opacity="1.000000" points="72,95 71,124 80,104" />
<polygon fill="#82d0f0" fill-opacity="1.000000" points="109,30 107,17 97,19" />
<polygon fill="#89d8f9" fill-opacity="1.000000" points="207,16 207,-16 178,13" />
<polygon fill="#4a5561" fill-opacity="1.000000" points="119,109 112,108 109,114" />
<polygon fill="#8b91a0" fill-opacity="1.000000" points="108,46 101,52 101,39" />
<polygon fill="#8ce0f6" fill-opacity="1.000000" points="54,63 56,71 52,79" />
<polygon fill="#73c8e2" fill-opacity="1.000000" points="32,79 35,94 26,102" />
<polygon fill="#94e2fb" fill-opacity="1.000000" points="93,3 107,-1 107,16" />
<polygon fill="#65b5d8" fill-opacity="1.000000" points="244,25 245,56 230,41" />
<polygon fill="#636572" fill-opacity="1.000000" points="184,52 191,48 200,63" />
<polygon fill="#5d7382" fill-opacity="1.000000" points="167,84 162,93 168,87" />
<polygon fill="#909eb4" fill-opacity="1.000000" points="205,80 214,84 208,77" />
<polygon fill="#7b9aac" fill-opacity="1.000000" points="122,15 125,18 122,18" />
<polygon fill="#71b6cf" fill-opacity="1.000000" points="145,91 142,89 150,86" />
<polygon fill="#92e1fa" fill-opacity="1.000000" points="54,9 57,40 67,6" />
<polygon fill="#89a0b8" fill-opacity="1.000000" points="136,110 128,103 142,106" />
<polygon fill="#525b68" fill-opacity="1.000000" points="145,33 153,35 152,42" />
<polygon fill="#25323a" fill-opacity="1.000000" points="151,109 152,101 155,103" />
<polygon fill="#676f7d" fill-opacity="1.000000" points="151,88 160,87 155,97" />
<polygon fill="#727685" fill-opacity="1.000000" points="96,46 85,56 95,40" />
<polygon fill="#51b2d1" fill-opacity="1.000000" points="142,128 152,113 157,148" />
<polygon fill="#aabad4" fill-opacity="1.000000" points="108,49 120,47 97,60" />
<polygon fill="#88d9f7" fill-opacity="1.000000" points="22,23 32,22 26,50" />
<polygon fill="#77c8e8" fill-opacity="1.000000" points="28,33 35,50 39,29" />
<polygon fill="#3d4b58" fill-opacity="1.000000" points="152,97 146,93 149,103" />
<polygon fill="#8c90a2" fill-opacity="1.000000" points="134,38 145,41 142,43" />
<polygon fill="#94c9d9" fill-opacity="1.000000" points="221,130 229,129 228,131" />
<polygon fill="#4ba6c4" fill-opacity="1.000000" points="225,100 230,129 185,108" />
<polygon fill="#6dbfdb" fill-opacity="1.000000" points="234,55 248,57 238,92" />
<polygon fill="#6a8195" fill-opacity="1.000000" points="114,7 112,10 108,8" />
<polygon fill="#4b535d" fill-opacity="1.000000" points="84,45 76,51 81,52" />
<polygon fill="#c1c3d2" fill-opacity="1.000000" points="171,53 167,48 162,49" />
<polygon fill="#727887" fill-opacity="1.000000" points="110,32 93,40 105,40" />
<polygon fill="#a1aab9" fill-opacity="1.000000" points="104,85 110,90 101,100" />
<polygon fill="#89dff7" fill-opacity="1.000000" points="23,105 29,87 23,68" />
<polygon fill="#c2ccde" fill-opacity="1.000000" points="206,73 207,76 201,73" />
<polygon fill="#72c1e3" fill-opacity="1.000000" points="19,23 21,53 6,41" />
<polygon fill="#637e96" fill-opacity="1.000000" points="116,88 134,87 118,82" />
<polygon fill="#7e8393" fill-opacity="1.000000" points="214,75 213,81 209,72" />
<polygon fill="#c2d4ec" fill-opacity="1.000000" points="195,71 179,64 173,74" />
<polygon fill="#4d87a8" fill-opacity="1.000000" points="60,99 59,95 52,93" />
<polygon fill="#a2a3b2" fill-opacity="1.000000" points="188,57 192,62 184,57" />
<polygon fill="#6ac2dd" fill-opacity="1.000000" points="176,113 177,95 181,113" />
<polygon fill="#74c4e8" fill-opacity="1.000000" points="233,16 233,36 227,16" />
<polygon fill="#61b9d4" fill-opacity="1.000000" points="157,109 166,94 157,97" />
<polygon fill="#acc2df" fill-opacity="1.000000" points="100,59 98,62 102,67" />
<polygon fill="#4a9ab6" fill-opacity="1.000000" points="105,115 102,119 99,113" />
<polygon fill="#69bade" fill-opacity="1.000000" points="214,30 210,51 221,55" />
<polygon fill="#718ba1" fill-opacity="1.000000" points="39,91 29,101 47,91" />
<polygon fill="#6c859b" fill-opacity="1.000000" points="89,105 90,98 73,94" />
<polygon fill="#8a8996" fill-opacity="1.000000" points="183,53 178,53 189,59" />
<polygon fill="#74d1eb" fill-opacity="1.000000" points="18,141 24,137 24,119" />
<polygon fill="#446e87" fill-opacity="1.000000" points="135,112 115,117 127,118" />
<polygon fill="#28373f" fill-opacity="1.000000" points="219,88 222,75 223,83" />
<polygon fill="#80899d" fill-opacity="1.000000" points="99,77 86,90 91,81" />
<polygon fill="#7c8da4" fill-opacity="1.000000" points="95,57 92,58 99,65" />
<polygon fill="#47a1bf" fill-opacity="1.000000" points="69,108 73,147 62,148" />
<polygon fill="#8eddfa" fill-opacity="1.000000" points="182,16 151,18 150,4" />
<polygon fill="#4a5a68" fill-opacity="1.000000" points="119,112 114,107 100,120" />
<polygon fill="#586171" fill-opacity="1.000000" points="218,85 218,81 213,85" />
<polygon fill="#5a6571" fill-opacity="1.000000" points="92,75 85,77 81,75" />
<polygon fill="#425060" fill-opacity="1.000000" points="76,75 64,65 63,76" />
<polygon fill="#51819e" fill-opacity="1.000000" points="44,93 47,91 48,98" />
<polygon fill="#8bdcfa" fill-opacity="1.000000" points="219,2 221,17 234,5" />
<polygon fill="#576777" fill-opacity="1.000000" points="133,29 126,38 123,31" />
<polygon fill="#84d2f1" fill-opacity="1.000000" points="34,10 35,18 54,11" />
<polygon fill="#8e9caf" fill-opacity="1.000000" points="134,101 127,90 125,105" />
<polygon fill="#bedaef" fill-opacity="1.000000" points="195,82 201,81 192,76" />
<polygon fill="#496273" fill-opacity="1.000000" points="182,79 168,86 173,79" />
<polygon fill="#9397a7" fill-opacity="1.000000" points="170,81 160,90 165,80" />
<polygon fill="#b9d1ec" fill-opacity="1.000000" points="115,62 107,68 136,72" />
<polygon fill="#4896b1" fill-opacity="1.000000" points="155,109 157,111 150,112" />
<polygon fill="#576b7d" fill-opacity="1.000000" points="143,106 143,109 142,109" />
<polygon fill="#5e7c91" fill-opacity="1.000000" points="196,50 188,50 191,48" />
<polygon fill="#a0adbf" fill-opacity="1.000000" points="120,104 117,107 122,106" />
<polygon fill="#74c5e9" fill-opacity="1.000000" points="196,50 208,43 207,36" />
<polygon fill="#8093ab" fill-opacity="1.000000" points="94,68 87,58 92,58" />
<polygon fill="#cfdaee" fill-opacity="1.000000" points="139,49 144,46 132,46" />
<polygon fill="#6abade" fill-opacity="1.000000" points="248,15 236,14 230,52" />
<polygon fill="#72c0e1" fill-opacity="1.000000" points="71,41 68,50 59,52" />
<polygon fill="#3b4753" fill-opacity="1.000000" points="126,107 119,112 123,107" />
<polygon fill="#b5c0cf" fill-opacity="1.000000" points="136,94 132,98 138,96" />
<polygon fill="#3f4c58" fill-opacity="1.000000" points="217,67 211,61 210,65" />
<polygon fill="#7fcdec" fill-opacity="1.000000" points="54,32 53,42 51,38" />
<polygon fill="#5d6b7b" fill-opacity="1.000000" points="72,84 80,89 84,85" />
<polygon fill="#436074" fill-opacity="1.000000" points="65,80 55,82 69,86" />
<polygon fill="#46a1c0" fill-opacity="1.000000" points="77,148 115,119 104,145" />
<polygon fill="#787885" fill-opacity="1.000000" points="161,40 151,43 147,40" />
<polygon fill="#daecf3" fill-opacity="1.000000" points="126,61 113,58 122,49" />
<polygon fill="#e2f2f5" fill-opacity="1.000000" points="149,49 169,55 154,75" />
<polygon fill="#95b9db" fill-opacity="1.000000" points="146,82 147,78 132,79" />
<polygon fill="#c0cadb" fill-opacity="1.000000" points="121,93 119,97 126,95" />
<polygon fill="#99adc3" fill-opacity="1.000000" points="139,106 131,97 136,108" />
<polygon fill="#525d6e" fill-opacity="1.000000" points="108,85 104,75 117,85" />
<polygon fill="#46a1c0" fill-opacity="1.000000" points="206,108 195,148 220,127" />
<polygon fill="#656470" fill-opacity="1.000000" points="208,66 212,70 201,65" />
<polygon fill="#7292ac" fill-opacity="1.000000" points="92,105 109,108 98,109" />
<polygon fill="#61cae0" fill-opacity="1.000000" points="140,117 136,122 142,136" />
<polygon fill="#63bdd7" fill-opacity="1.000000" points="180,112 185,142 178,128" />
<polygon fill="#56afcc" fill-opacity="1.000000" points="35,114 26,104 36,126" />
<polygon fill="#95e4fa" fill-opacity="1.000000" points="128,12 125,16 116,5" />
<polygon fill="#33383c" fill-opacity="1.000000" points="204,76 203,78 198,79" />
<polygon fill="#7bcbee" fill-opacity="1.000000" points="212,16 159,34 179,17" />
<polygon fill="#92a1b6" fill-opacity="1.000000" points="112,99 101,93 105,106" />
</g>
</svg>